<?xml version="1.0" encoding="UTF-8" standalone="no"?>
<!DOCTYPE svg PUBLIC "-//W3C//DTD SVG 1.1//EN" "http://www.w3.org/Graphics/SVG/1.1/DTD/svg11.dtd">
<svg width="100%" height="100%" viewBox="0 0 1879 204" version="1.1" xmlns="http://www.w3.org/2000/svg" xmlns:xlink="http://www.w3.org/1999/xlink" xml:space="preserve" xmlns:serif="http://www.serif.com/" style="fill-rule:evenodd;clip-rule:evenodd;stroke-linecap:round;stroke-linejoin:round;stroke-miterlimit:1.5;">
    <g transform="matrix(1,0,0,1,-265.486,-890.136)">
        <g>
            <g transform="matrix(1,0,0,1,1180.79,330.709)">
                <path d="M377.953,566.929L377.953,755.906" style="fill:none;stroke:black;stroke-width:1.25px;stroke-dasharray:5,2.5,5,2.5,5,2.5;"/>
            </g>
            <g transform="matrix(1,0,0,1,1417.01,330.709)">
                <path d="M377.953,566.929L377.953,755.906" style="fill:none;stroke:black;stroke-width:1.25px;stroke-dasharray:5,2.5,5,2.5,5,2.5;"/>
            </g>
            <g transform="matrix(1,0,0,1,1653.23,330.709)">
                <path d="M377.953,566.929L377.953,755.906" style="fill:none;stroke:black;stroke-width:1.25px;stroke-dasharray:5,2.5,5,2.5,5,2.5;"/>
            </g>
            <g transform="matrix(1,0,0,1,235.909,330.709)">
                <path d="M377.953,566.929L377.953,755.906" style="fill:none;stroke:black;stroke-width:1.25px;stroke-dasharray:5,2.5,5,2.5,5,2.5;"/>
            </g>
            <g transform="matrix(1,0,0,1,472.13,330.709)">
                <path d="M377.953,566.929L377.953,755.906" style="fill:none;stroke:black;stroke-width:1.25px;stroke-dasharray:5,2.5,5,2.5,5,2.5;"/>
            </g>
            <g transform="matrix(1,0,0,1,-0.311024,330.709)">
                <path d="M377.953,566.929L377.953,755.906" style="fill:none;stroke:black;stroke-width:1.25px;stroke-dasharray:5,2.5,5,2.5,5,2.5;"/>
            </g>
            <g transform="matrix(2.6,0,0,1,-1559.06,283.465)">
                <rect x="944.882" y="614.173" width="236.22" height="188.976" style="fill:white;stroke:black;stroke-width:1.06px;"/>
            </g>
            <g transform="matrix(0.4,0,0,1,94.7992,283.465)">
                <rect x="944.882" y="614.173" width="236.22" height="188.976" style="fill:white;stroke:black;stroke-width:2.74px;"/>
            </g>
            <g transform="matrix(0.4,0,0,1,1464.26,283.465)">
                <rect x="944.882" y="614.173" width="236.22" height="188.976" style="fill:white;stroke:black;stroke-width:2.74px;"/>
            </g>
            <g transform="matrix(0.6,0,0,1,94.1772,283.465)">
                <rect x="944.882" y="614.173" width="236.22" height="188.976" style="fill:white;stroke:black;stroke-width:2.53px;"/>
            </g>
            <g transform="matrix(0.6,0,0,1,1039.06,283.465)">
                <rect x="944.882" y="614.173" width="236.22" height="188.976" style="fill:white;stroke:black;stroke-width:2.53px;"/>
            </g>
            <g transform="matrix(1,0,0,1,188.665,283.465)">
                <path d="M1322.84,661.417L1417.32,661.417" style="fill:none;stroke:black;stroke-width:2.08px;"/>
            </g>
            <g transform="matrix(1,0,0,1,188.665,377.953)">
                <path d="M1322.84,661.417L1417.32,661.417" style="fill:none;stroke:black;stroke-width:2.08px;"/>
            </g>
            <g transform="matrix(1,0,0,1,424.886,283.465)">
                <path d="M1322.84,661.417L1417.32,661.417" style="fill:none;stroke:black;stroke-width:2.08px;"/>
            </g>
            <g transform="matrix(1,0,0,1,424.886,377.953)">
                <path d="M1322.84,661.417L1417.32,661.417" style="fill:none;stroke:black;stroke-width:2.08px;"/>
            </g>
            <g transform="matrix(1,0,0,1,-519.996,283.465)">
                <path d="M1322.84,661.417L1417.32,661.417" style="fill:none;stroke:black;stroke-width:2.08px;"/>
            </g>
            <g transform="matrix(1,0,0,1,-519.996,377.953)">
                <path d="M1322.84,661.417L1417.32,661.417" style="fill:none;stroke:black;stroke-width:2.08px;"/>
            </g>
            <g transform="matrix(1,0,0,1,-756.217,283.465)">
                <path d="M1322.84,661.417L1417.32,661.417" style="fill:none;stroke:black;stroke-width:2.08px;"/>
            </g>
            <g transform="matrix(1,0,0,1,-756.217,377.953)">
                <path d="M1322.84,661.417L1417.32,661.417" style="fill:none;stroke:black;stroke-width:2.08px;"/>
            </g>
            <g transform="matrix(1,0,0,1,-945.193,283.465)">
                <path d="M1322.84,661.417L1417.32,661.417" style="fill:none;stroke:black;stroke-width:2.08px;"/>
            </g>
            <g transform="matrix(1,0,0,1,-945.193,377.953)">
                <path d="M1322.84,661.417L1417.32,661.417" style="fill:none;stroke:black;stroke-width:2.08px;"/>
            </g>
            <g transform="matrix(1,0,0,1,613.862,283.465)">
                <path d="M1322.84,661.417L1417.32,661.417" style="fill:none;stroke:black;stroke-width:2.08px;"/>
            </g>
            <g transform="matrix(1,0,0,1,613.862,377.953)">
                <path d="M1322.84,661.417L1417.32,661.417" style="fill:none;stroke:black;stroke-width:2.08px;"/>
            </g>
            <g transform="matrix(0.718933,0,0,0.718933,247.198,341.997)">
                <circle cx="838.583" cy="838.583" r="11.811" style="fill:white;stroke:black;stroke-width:2.9px;"/>
            </g>
            <g transform="matrix(0.718933,0,0,0.718933,247.198,436.485)">
                <circle cx="838.583" cy="838.583" r="11.811" style="fill:white;stroke:black;stroke-width:2.9px;"/>
            </g>
            <g transform="matrix(0.718933,0,0,0.718933,10.9772,341.997)">
                <circle cx="838.583" cy="838.583" r="11.811" style="fill:white;stroke:black;stroke-width:2.9px;"/>
            </g>
            <g transform="matrix(0.718933,0,0,0.718933,10.9772,436.485)">
                <circle cx="838.583" cy="838.583" r="11.811" style="fill:white;stroke:black;stroke-width:2.9px;"/>
            </g>
            <g transform="matrix(0.718933,0,0,0.718933,955.859,341.997)">
                <circle cx="838.583" cy="838.583" r="11.811" style="fill:white;stroke:black;stroke-width:2.9px;"/>
            </g>
            <g transform="matrix(0.718933,0,0,0.718933,955.859,436.485)">
                <circle cx="838.583" cy="838.583" r="11.811" style="fill:white;stroke:black;stroke-width:2.9px;"/>
            </g>
            <g transform="matrix(0.718933,0,0,0.718933,1192.08,341.997)">
                <circle cx="838.583" cy="838.583" r="11.811" style="fill:white;stroke:black;stroke-width:2.9px;"/>
            </g>
            <g transform="matrix(0.718933,0,0,0.718933,1192.08,436.485)">
                <circle cx="838.583" cy="838.583" r="11.811" style="fill:white;stroke:black;stroke-width:2.9px;"/>
            </g>
            <g transform="matrix(0.718933,0,0,0.718933,1428.3,341.997)">
                <circle cx="838.583" cy="838.583" r="11.811" style="fill:white;stroke:black;stroke-width:2.9px;"/>
            </g>
            <g transform="matrix(0.718933,0,0,0.718933,1428.3,436.485)">
                <circle cx="838.583" cy="838.583" r="11.811" style="fill:white;stroke:black;stroke-width:2.9px;"/>
            </g>
            <g transform="matrix(0.718933,0,0,0.718933,-225.243,341.997)">
                <circle cx="838.583" cy="838.583" r="11.811" style="fill:white;stroke:black;stroke-width:2.9px;"/>
            </g>
            <g transform="matrix(0.718933,0,0,0.718933,-225.243,436.485)">
                <circle cx="838.583" cy="838.583" r="11.811" style="fill:white;stroke:black;stroke-width:2.9px;"/>
            </g>
            <g transform="matrix(1,0,0,1,-18.9573,347.618)">
                <g transform="matrix(50,0,0,50,505.961,652.515)">
                    <path d="M0.146,-0.662L0.649,-0.662L0.595,-0.486L0.577,-0.486C0.583,-0.512 0.586,-0.535 0.586,-0.555C0.586,-0.579 0.579,-0.597 0.564,-0.609C0.553,-0.618 0.524,-0.623 0.479,-0.623L0.426,-0.623L0.295,-0.167C0.279,-0.109 0.271,-0.074 0.271,-0.061C0.271,-0.048 0.276,-0.038 0.286,-0.03C0.297,-0.022 0.315,-0.018 0.341,-0.018L0.364,-0.018L0.358,-0L0.07,-0L0.075,-0.018L0.088,-0.018C0.113,-0.018 0.133,-0.022 0.146,-0.03C0.156,-0.036 0.164,-0.046 0.172,-0.06C0.18,-0.075 0.19,-0.105 0.204,-0.152L0.341,-0.623L0.302,-0.623C0.264,-0.623 0.233,-0.618 0.21,-0.608C0.186,-0.598 0.168,-0.584 0.153,-0.565C0.139,-0.547 0.127,-0.521 0.118,-0.486L0.1,-0.486L0.146,-0.662Z" style="fill-rule:nonzero;"/>
                </g>
                <g transform="matrix(29.15,0,0,29.15,533.768,669.165)">
                    <path d="M0.704,-0.677L0.654,-0.463L0.637,-0.463L0.635,-0.517C0.633,-0.536 0.629,-0.554 0.624,-0.569C0.618,-0.584 0.609,-0.597 0.597,-0.609C0.585,-0.62 0.571,-0.629 0.553,-0.635C0.535,-0.641 0.515,-0.645 0.493,-0.645C0.435,-0.645 0.384,-0.629 0.34,-0.597C0.285,-0.556 0.241,-0.499 0.209,-0.424C0.183,-0.363 0.17,-0.301 0.17,-0.238C0.17,-0.174 0.189,-0.123 0.227,-0.085C0.264,-0.046 0.313,-0.027 0.373,-0.027C0.418,-0.027 0.458,-0.037 0.493,-0.058C0.529,-0.078 0.562,-0.109 0.592,-0.151L0.615,-0.151C0.579,-0.094 0.539,-0.052 0.496,-0.025C0.452,0.002 0.4,0.015 0.339,0.015C0.285,0.015 0.237,0.004 0.195,-0.019C0.154,-0.041 0.122,-0.073 0.1,-0.114C0.078,-0.155 0.067,-0.199 0.067,-0.247C0.067,-0.319 0.087,-0.389 0.125,-0.458C0.164,-0.526 0.217,-0.58 0.285,-0.619C0.352,-0.658 0.421,-0.677 0.489,-0.677C0.521,-0.677 0.558,-0.67 0.598,-0.654C0.615,-0.648 0.628,-0.645 0.636,-0.645C0.644,-0.645 0.65,-0.646 0.656,-0.649C0.662,-0.653 0.672,-0.662 0.686,-0.677L0.704,-0.677Z" style="fill-rule:nonzero;"/>
                </g>
                <g transform="matrix(29.15,0,0,29.15,553.211,669.165)">
                    <path d="M0.458,-0L-0.032,-0L-0.025,-0.018C0.001,-0.019 0.018,-0.021 0.027,-0.024C0.041,-0.03 0.051,-0.038 0.057,-0.047C0.067,-0.062 0.078,-0.089 0.089,-0.128L0.206,-0.531C0.216,-0.564 0.221,-0.589 0.221,-0.604C0.221,-0.617 0.216,-0.626 0.207,-0.633C0.198,-0.64 0.181,-0.644 0.157,-0.644C0.151,-0.644 0.147,-0.644 0.144,-0.644L0.149,-0.662L0.419,-0.662L0.416,-0.644C0.385,-0.644 0.364,-0.641 0.351,-0.635C0.338,-0.629 0.328,-0.62 0.319,-0.606C0.313,-0.598 0.304,-0.57 0.291,-0.524L0.176,-0.128C0.167,-0.098 0.163,-0.078 0.163,-0.066C0.163,-0.058 0.167,-0.051 0.176,-0.043C0.181,-0.039 0.194,-0.036 0.213,-0.036L0.277,-0.036C0.324,-0.036 0.361,-0.042 0.388,-0.054C0.408,-0.063 0.427,-0.076 0.444,-0.093C0.453,-0.103 0.469,-0.127 0.492,-0.166L0.505,-0.188L0.523,-0.188L0.458,-0Z" style="fill-rule:nonzero;"/>
                </g>
            </g>
            <g transform="matrix(6.12323e-17,-1,1,6.12323e-17,-353.924,1600.93)">
                <g transform="matrix(50,0,0,50,548.527,652.515)">
                    <path d="M0.135,0.015L0.192,-0.537C0.195,-0.558 0.196,-0.574 0.196,-0.585C0.196,-0.604 0.19,-0.619 0.18,-0.628C0.169,-0.638 0.15,-0.643 0.122,-0.644L0.127,-0.662L0.375,-0.662L0.37,-0.644C0.336,-0.644 0.314,-0.638 0.302,-0.626C0.289,-0.614 0.281,-0.584 0.276,-0.537L0.24,-0.179L0.491,-0.567C0.492,-0.574 0.492,-0.579 0.492,-0.584C0.492,-0.602 0.486,-0.616 0.476,-0.626C0.465,-0.636 0.442,-0.642 0.406,-0.644L0.41,-0.662L0.678,-0.662L0.673,-0.644C0.642,-0.644 0.621,-0.641 0.61,-0.636C0.603,-0.633 0.596,-0.627 0.591,-0.619C0.585,-0.611 0.581,-0.597 0.578,-0.578C0.577,-0.573 0.573,-0.535 0.566,-0.465C0.559,-0.395 0.548,-0.3 0.534,-0.179L0.744,-0.498C0.766,-0.532 0.781,-0.557 0.787,-0.571C0.792,-0.585 0.795,-0.597 0.795,-0.606C0.795,-0.616 0.792,-0.624 0.784,-0.631C0.776,-0.638 0.763,-0.642 0.744,-0.644L0.748,-0.662L0.944,-0.662L0.939,-0.644C0.922,-0.643 0.906,-0.639 0.893,-0.631C0.88,-0.624 0.864,-0.611 0.846,-0.59C0.835,-0.579 0.814,-0.548 0.781,-0.498L0.449,0.015L0.431,0.015L0.484,-0.498L0.152,0.015L0.135,0.015Z" style="fill-rule:nonzero;"/>
                </g>
                <g transform="matrix(50,0,0,50,587.418,652.515)">
                    <path d="M0.052,-0.415L0.221,-0.442L0.15,-0.205C0.207,-0.302 0.259,-0.37 0.306,-0.409C0.332,-0.431 0.354,-0.442 0.37,-0.442C0.381,-0.442 0.389,-0.439 0.396,-0.432C0.402,-0.426 0.405,-0.417 0.405,-0.405C0.405,-0.383 0.399,-0.363 0.388,-0.343C0.38,-0.329 0.369,-0.321 0.354,-0.321C0.347,-0.321 0.341,-0.324 0.335,-0.329C0.33,-0.333 0.326,-0.341 0.325,-0.351C0.325,-0.357 0.323,-0.361 0.321,-0.363C0.318,-0.366 0.315,-0.367 0.312,-0.367C0.306,-0.367 0.301,-0.366 0.296,-0.363C0.287,-0.359 0.275,-0.346 0.257,-0.325C0.23,-0.293 0.201,-0.252 0.169,-0.201C0.156,-0.18 0.144,-0.155 0.134,-0.128C0.121,-0.091 0.113,-0.069 0.111,-0.062L0.095,-0L0.021,-0L0.111,-0.303C0.121,-0.338 0.126,-0.363 0.126,-0.378C0.126,-0.384 0.124,-0.389 0.119,-0.393C0.113,-0.398 0.104,-0.401 0.093,-0.401C0.086,-0.401 0.074,-0.399 0.056,-0.396L0.052,-0.415Z" style="fill-rule:nonzero;"/>
                </g>
                <g transform="matrix(50,0,0,50,605.021,652.515)">
                    <path d="M0.462,-0.289C0.462,-0.24 0.449,-0.192 0.424,-0.144C0.398,-0.096 0.362,-0.058 0.315,-0.03C0.269,-0.002 0.224,0.012 0.181,0.012C0.136,0.012 0.1,-0.003 0.072,-0.031C0.043,-0.059 0.029,-0.096 0.029,-0.142C0.029,-0.189 0.043,-0.237 0.071,-0.286C0.098,-0.334 0.135,-0.372 0.181,-0.4C0.227,-0.428 0.271,-0.442 0.314,-0.442C0.357,-0.442 0.393,-0.428 0.421,-0.399C0.448,-0.371 0.462,-0.334 0.462,-0.289ZM0.381,-0.323C0.381,-0.353 0.374,-0.376 0.359,-0.392C0.344,-0.408 0.325,-0.417 0.302,-0.417C0.254,-0.417 0.21,-0.382 0.17,-0.314C0.129,-0.245 0.109,-0.177 0.109,-0.109C0.109,-0.078 0.117,-0.055 0.133,-0.038C0.148,-0.021 0.168,-0.013 0.192,-0.013C0.238,-0.013 0.281,-0.047 0.321,-0.115C0.361,-0.183 0.381,-0.252 0.381,-0.323Z" style="fill-rule:nonzero;"/>
                </g>
                <g transform="matrix(50,0,0,50,630.021,652.515)">
                    <path d="M0.26,-0.563L0.222,-0.43L0.298,-0.43L0.29,-0.399L0.214,-0.399L0.13,-0.111C0.121,-0.08 0.116,-0.06 0.116,-0.051C0.116,-0.046 0.118,-0.042 0.12,-0.039C0.123,-0.036 0.126,-0.034 0.129,-0.034C0.138,-0.034 0.148,-0.04 0.162,-0.051C0.169,-0.058 0.187,-0.078 0.214,-0.111L0.23,-0.099C0.2,-0.056 0.172,-0.025 0.145,-0.007C0.127,0.006 0.108,0.012 0.09,0.012C0.076,0.012 0.064,0.007 0.055,-0.002C0.046,-0.011 0.041,-0.022 0.041,-0.036C0.041,-0.054 0.046,-0.081 0.057,-0.117L0.138,-0.399L0.064,-0.399L0.069,-0.418C0.105,-0.428 0.135,-0.443 0.159,-0.462C0.182,-0.482 0.209,-0.515 0.238,-0.563L0.26,-0.563Z" style="fill-rule:nonzero;"/>
                </g>
                <g transform="matrix(50,0,0,50,643.912,652.515)">
                    <path d="M0.469,-0.442L0.374,-0.111L0.363,-0.066C0.362,-0.062 0.362,-0.059 0.362,-0.056C0.362,-0.05 0.363,-0.046 0.367,-0.042C0.369,-0.039 0.373,-0.038 0.376,-0.038C0.381,-0.038 0.386,-0.04 0.393,-0.045C0.406,-0.055 0.423,-0.074 0.444,-0.104L0.46,-0.092C0.438,-0.058 0.415,-0.033 0.391,-0.015C0.367,0.003 0.345,0.012 0.325,0.012C0.311,0.012 0.301,0.008 0.294,0.001C0.287,-0.006 0.283,-0.016 0.283,-0.029C0.283,-0.045 0.287,-0.066 0.294,-0.092L0.304,-0.129C0.262,-0.073 0.222,-0.034 0.187,-0.012C0.161,0.004 0.136,0.012 0.111,0.012C0.087,0.012 0.067,0.002 0.049,-0.018C0.032,-0.038 0.023,-0.065 0.023,-0.099C0.023,-0.151 0.039,-0.205 0.07,-0.263C0.101,-0.32 0.141,-0.366 0.188,-0.401C0.226,-0.428 0.261,-0.442 0.294,-0.442C0.314,-0.442 0.331,-0.437 0.344,-0.426C0.357,-0.416 0.367,-0.399 0.374,-0.375L0.392,-0.43L0.469,-0.442ZM0.295,-0.417C0.275,-0.417 0.252,-0.407 0.229,-0.387C0.196,-0.36 0.166,-0.319 0.14,-0.264C0.115,-0.21 0.102,-0.161 0.102,-0.117C0.102,-0.095 0.107,-0.077 0.118,-0.064C0.129,-0.051 0.142,-0.045 0.156,-0.045C0.192,-0.045 0.23,-0.071 0.272,-0.124C0.328,-0.193 0.355,-0.265 0.355,-0.338C0.355,-0.366 0.35,-0.386 0.339,-0.398C0.329,-0.41 0.314,-0.417 0.295,-0.417Z" style="fill-rule:nonzero;"/>
                </g>
                <g transform="matrix(50,0,0,50,505.961,704.639)">
                    <path d="M0.419,-0.442L0.453,-0.076C0.509,-0.142 0.555,-0.204 0.588,-0.263C0.608,-0.297 0.618,-0.322 0.618,-0.337C0.618,-0.344 0.617,-0.35 0.613,-0.356C0.612,-0.359 0.607,-0.363 0.598,-0.369C0.589,-0.375 0.583,-0.38 0.579,-0.386C0.576,-0.392 0.574,-0.399 0.574,-0.406C0.574,-0.416 0.577,-0.424 0.585,-0.431C0.592,-0.438 0.602,-0.442 0.614,-0.442C0.627,-0.442 0.638,-0.437 0.648,-0.427C0.657,-0.417 0.662,-0.404 0.662,-0.387C0.662,-0.37 0.659,-0.354 0.654,-0.34C0.645,-0.312 0.625,-0.276 0.597,-0.231C0.563,-0.178 0.527,-0.129 0.49,-0.084C0.454,-0.038 0.427,-0.007 0.409,0.012L0.391,0.012L0.359,-0.326L0.157,0.012L0.136,0.012C0.133,-0.127 0.126,-0.237 0.115,-0.317C0.11,-0.351 0.102,-0.373 0.09,-0.383C0.082,-0.391 0.07,-0.395 0.053,-0.395C0.044,-0.395 0.032,-0.394 0.017,-0.392L0.017,-0.409L0.157,-0.442C0.177,-0.388 0.189,-0.304 0.195,-0.191C0.197,-0.149 0.199,-0.122 0.2,-0.111L0.401,-0.442L0.419,-0.442Z" style="fill-rule:nonzero;"/>
                </g>
                <g transform="matrix(50,0,0,50,539.31,704.639)">
                    <path d="M0.119,-0.184C0.117,-0.168 0.116,-0.154 0.116,-0.144C0.116,-0.115 0.126,-0.09 0.146,-0.07C0.167,-0.049 0.192,-0.039 0.221,-0.039C0.245,-0.039 0.267,-0.044 0.289,-0.053C0.31,-0.063 0.343,-0.084 0.385,-0.117L0.396,-0.103C0.318,-0.027 0.245,0.012 0.175,0.012C0.127,0.012 0.091,-0.003 0.067,-0.033C0.043,-0.063 0.031,-0.096 0.031,-0.132C0.031,-0.181 0.046,-0.23 0.076,-0.281C0.106,-0.332 0.144,-0.372 0.189,-0.4C0.234,-0.428 0.281,-0.442 0.329,-0.442C0.363,-0.442 0.389,-0.435 0.405,-0.421C0.422,-0.407 0.43,-0.39 0.43,-0.371C0.43,-0.344 0.419,-0.318 0.398,-0.293C0.37,-0.261 0.328,-0.235 0.273,-0.215C0.236,-0.202 0.185,-0.192 0.119,-0.184ZM0.123,-0.208C0.171,-0.214 0.21,-0.223 0.24,-0.236C0.28,-0.254 0.31,-0.276 0.33,-0.301C0.35,-0.325 0.36,-0.349 0.36,-0.372C0.36,-0.385 0.356,-0.396 0.347,-0.405C0.339,-0.413 0.326,-0.417 0.311,-0.417C0.277,-0.417 0.242,-0.4 0.205,-0.365C0.168,-0.329 0.14,-0.277 0.123,-0.208Z" style="fill-rule:nonzero;"/>
                </g>
                <g transform="matrix(50,0,0,50,561.503,704.639)">
                    <path d="M0.229,-0.635C0.243,-0.635 0.254,-0.63 0.264,-0.621C0.274,-0.611 0.278,-0.6 0.278,-0.586C0.278,-0.572 0.274,-0.561 0.264,-0.551C0.254,-0.541 0.243,-0.537 0.229,-0.537C0.215,-0.537 0.204,-0.541 0.194,-0.551C0.184,-0.561 0.18,-0.572 0.18,-0.586C0.18,-0.6 0.184,-0.611 0.194,-0.621C0.204,-0.63 0.215,-0.635 0.229,-0.635ZM0.237,-0.442L0.11,-0.005C0.088,0.073 0.057,0.13 0.018,0.164C-0.021,0.199 -0.064,0.216 -0.109,0.216C-0.13,0.216 -0.145,0.211 -0.156,0.202C-0.167,0.192 -0.172,0.181 -0.172,0.168C-0.172,0.158 -0.168,0.149 -0.16,0.141C-0.152,0.134 -0.143,0.13 -0.132,0.13C-0.123,0.13 -0.115,0.133 -0.107,0.139C-0.102,0.144 -0.099,0.15 -0.099,0.156C-0.099,0.164 -0.103,0.172 -0.111,0.178C-0.115,0.181 -0.118,0.184 -0.118,0.187L-0.117,0.189C-0.116,0.19 -0.114,0.191 -0.112,0.192C-0.11,0.193 -0.107,0.193 -0.104,0.193C-0.077,0.193 -0.055,0.184 -0.036,0.168C-0.017,0.151 -0,0.118 0.014,0.067L0.124,-0.308C0.134,-0.344 0.14,-0.365 0.14,-0.369C0.14,-0.376 0.136,-0.383 0.129,-0.39C0.122,-0.396 0.113,-0.399 0.103,-0.399C0.098,-0.399 0.093,-0.398 0.088,-0.397C0.084,-0.397 0.077,-0.396 0.069,-0.395L0.069,-0.412L0.237,-0.442Z" style="fill-rule:nonzero;"/>
                </g>
                <g transform="matrix(50,0,0,50,575.394,704.639)">
                    <path d="M0.363,-0.442L0.333,-0.292L0.315,-0.292C0.313,-0.336 0.304,-0.367 0.287,-0.387C0.27,-0.407 0.249,-0.417 0.224,-0.417C0.204,-0.417 0.188,-0.411 0.176,-0.4C0.164,-0.389 0.158,-0.376 0.158,-0.36C0.158,-0.35 0.161,-0.339 0.165,-0.33C0.17,-0.32 0.18,-0.306 0.196,-0.289C0.239,-0.242 0.266,-0.208 0.278,-0.184C0.291,-0.161 0.297,-0.139 0.297,-0.118C0.297,-0.084 0.283,-0.054 0.255,-0.028C0.226,-0.001 0.191,0.012 0.148,0.012C0.125,0.012 0.097,0.006 0.067,-0.005C0.056,-0.009 0.048,-0.011 0.042,-0.011C0.027,-0.011 0.016,-0.003 0.009,0.012L-0.009,0.012L0.021,-0.146L0.039,-0.146C0.041,-0.097 0.051,-0.062 0.069,-0.042C0.088,-0.021 0.113,-0.011 0.146,-0.011C0.17,-0.011 0.19,-0.018 0.204,-0.031C0.219,-0.045 0.226,-0.062 0.226,-0.083C0.226,-0.096 0.223,-0.108 0.218,-0.119C0.209,-0.138 0.19,-0.165 0.161,-0.2C0.132,-0.234 0.113,-0.26 0.105,-0.277C0.096,-0.295 0.092,-0.312 0.092,-0.329C0.092,-0.361 0.104,-0.387 0.127,-0.409C0.15,-0.431 0.179,-0.442 0.215,-0.442C0.226,-0.442 0.235,-0.441 0.244,-0.439C0.248,-0.438 0.259,-0.435 0.276,-0.428C0.292,-0.422 0.304,-0.419 0.309,-0.419C0.323,-0.419 0.335,-0.427 0.344,-0.442L0.363,-0.442ZM0.377,-0.685L0.233,-0.517L0.217,-0.517L0.267,-0.685L0.377,-0.685Z" style="fill-rule:nonzero;"/>
                </g>
                <g transform="matrix(50,0,0,50,594.852,704.639)">
                    <path d="M0.386,-0.106C0.352,-0.066 0.318,-0.036 0.284,-0.017C0.249,0.002 0.213,0.012 0.174,0.012C0.128,0.012 0.092,-0.001 0.066,-0.027C0.04,-0.053 0.027,-0.088 0.027,-0.132C0.027,-0.182 0.041,-0.231 0.069,-0.279C0.097,-0.327 0.134,-0.367 0.181,-0.397C0.228,-0.427 0.275,-0.442 0.32,-0.442C0.355,-0.442 0.382,-0.434 0.399,-0.42C0.417,-0.405 0.426,-0.387 0.426,-0.365C0.426,-0.345 0.42,-0.328 0.407,-0.313C0.398,-0.302 0.387,-0.297 0.374,-0.297C0.363,-0.297 0.355,-0.3 0.348,-0.307C0.342,-0.313 0.338,-0.321 0.338,-0.331C0.338,-0.337 0.34,-0.343 0.342,-0.348C0.344,-0.353 0.35,-0.36 0.357,-0.367C0.365,-0.374 0.369,-0.38 0.371,-0.383C0.373,-0.386 0.374,-0.389 0.374,-0.393C0.374,-0.4 0.37,-0.406 0.364,-0.41C0.355,-0.417 0.341,-0.42 0.324,-0.42C0.292,-0.42 0.261,-0.409 0.229,-0.386C0.198,-0.364 0.172,-0.332 0.149,-0.291C0.123,-0.24 0.109,-0.19 0.109,-0.14C0.109,-0.107 0.119,-0.081 0.138,-0.061C0.157,-0.042 0.182,-0.032 0.215,-0.032C0.24,-0.032 0.265,-0.038 0.289,-0.051C0.314,-0.064 0.341,-0.086 0.372,-0.119L0.386,-0.106Z" style="fill-rule:nonzero;"/>
                </g>
                <g transform="matrix(50,0,0,50,617.045,704.639)">
                    <path d="M0.224,-0.636C0.237,-0.636 0.249,-0.631 0.258,-0.622C0.268,-0.612 0.272,-0.601 0.272,-0.587C0.272,-0.574 0.268,-0.562 0.258,-0.552C0.248,-0.543 0.237,-0.538 0.224,-0.538C0.21,-0.538 0.199,-0.543 0.189,-0.552C0.18,-0.562 0.175,-0.574 0.175,-0.587C0.175,-0.601 0.18,-0.612 0.189,-0.622C0.198,-0.631 0.21,-0.636 0.224,-0.636ZM0.23,-0.442L0.133,-0.1C0.127,-0.076 0.124,-0.063 0.124,-0.058C0.124,-0.053 0.125,-0.049 0.128,-0.045C0.131,-0.042 0.135,-0.041 0.139,-0.041C0.144,-0.041 0.15,-0.043 0.157,-0.048C0.175,-0.063 0.194,-0.084 0.213,-0.111L0.23,-0.1C0.208,-0.066 0.182,-0.037 0.152,-0.014C0.13,0.003 0.109,0.012 0.088,0.012C0.075,0.012 0.064,0.008 0.056,-0C0.047,-0.008 0.043,-0.018 0.043,-0.03C0.043,-0.042 0.047,-0.062 0.055,-0.09L0.119,-0.309C0.129,-0.345 0.134,-0.367 0.134,-0.376C0.134,-0.384 0.132,-0.389 0.127,-0.394C0.122,-0.399 0.115,-0.401 0.106,-0.401C0.099,-0.401 0.084,-0.399 0.062,-0.396L0.062,-0.415L0.23,-0.442Z" style="fill-rule:nonzero;"/>
                </g>
                <g transform="matrix(50,0,0,50,630.936,704.639)">
                    <path d="M0.462,-0.289C0.462,-0.24 0.449,-0.192 0.424,-0.144C0.398,-0.096 0.362,-0.058 0.315,-0.03C0.269,-0.002 0.224,0.012 0.181,0.012C0.136,0.012 0.1,-0.003 0.072,-0.031C0.043,-0.059 0.029,-0.096 0.029,-0.142C0.029,-0.189 0.043,-0.237 0.071,-0.286C0.098,-0.334 0.135,-0.372 0.181,-0.4C0.227,-0.428 0.271,-0.442 0.314,-0.442C0.357,-0.442 0.393,-0.428 0.421,-0.399C0.448,-0.371 0.462,-0.334 0.462,-0.289ZM0.381,-0.323C0.381,-0.353 0.374,-0.376 0.359,-0.392C0.344,-0.408 0.325,-0.417 0.302,-0.417C0.254,-0.417 0.21,-0.382 0.17,-0.314C0.129,-0.245 0.109,-0.177 0.109,-0.109C0.109,-0.078 0.117,-0.055 0.133,-0.038C0.148,-0.021 0.168,-0.013 0.192,-0.013C0.238,-0.013 0.281,-0.047 0.321,-0.115C0.361,-0.183 0.381,-0.252 0.381,-0.323Z" style="fill-rule:nonzero;"/>
                </g>
                <g transform="matrix(50,0,0,50,655.936,704.639)">
                    <path d="M0.419,-0.442L0.453,-0.076C0.509,-0.142 0.555,-0.204 0.588,-0.263C0.608,-0.297 0.618,-0.322 0.618,-0.337C0.618,-0.344 0.617,-0.35 0.613,-0.356C0.612,-0.359 0.607,-0.363 0.598,-0.369C0.589,-0.375 0.583,-0.38 0.579,-0.386C0.576,-0.392 0.574,-0.399 0.574,-0.406C0.574,-0.416 0.577,-0.424 0.585,-0.431C0.592,-0.438 0.602,-0.442 0.614,-0.442C0.627,-0.442 0.638,-0.437 0.648,-0.427C0.657,-0.417 0.662,-0.404 0.662,-0.387C0.662,-0.37 0.659,-0.354 0.654,-0.34C0.645,-0.312 0.625,-0.276 0.597,-0.231C0.563,-0.178 0.527,-0.129 0.49,-0.084C0.454,-0.038 0.427,-0.007 0.409,0.012L0.391,0.012L0.359,-0.326L0.157,0.012L0.136,0.012C0.133,-0.127 0.126,-0.237 0.115,-0.317C0.11,-0.351 0.102,-0.373 0.09,-0.383C0.082,-0.391 0.07,-0.395 0.053,-0.395C0.044,-0.395 0.032,-0.394 0.017,-0.392L0.017,-0.409L0.157,-0.442C0.177,-0.388 0.189,-0.304 0.195,-0.191C0.197,-0.149 0.199,-0.122 0.2,-0.111L0.401,-0.442L0.419,-0.442Z" style="fill-rule:nonzero;"/>
                </g>
                <g transform="matrix(50,0,0,50,689.286,704.639)">
                    <path d="M0.119,-0.184C0.117,-0.168 0.116,-0.154 0.116,-0.144C0.116,-0.115 0.126,-0.09 0.146,-0.07C0.167,-0.049 0.192,-0.039 0.221,-0.039C0.245,-0.039 0.267,-0.044 0.289,-0.053C0.31,-0.063 0.343,-0.084 0.385,-0.117L0.396,-0.103C0.318,-0.027 0.245,0.012 0.175,0.012C0.127,0.012 0.091,-0.003 0.067,-0.033C0.043,-0.063 0.031,-0.096 0.031,-0.132C0.031,-0.181 0.046,-0.23 0.076,-0.281C0.106,-0.332 0.144,-0.372 0.189,-0.4C0.234,-0.428 0.281,-0.442 0.329,-0.442C0.363,-0.442 0.389,-0.435 0.405,-0.421C0.422,-0.407 0.43,-0.39 0.43,-0.371C0.43,-0.344 0.419,-0.318 0.398,-0.293C0.37,-0.261 0.328,-0.235 0.273,-0.215C0.236,-0.202 0.185,-0.192 0.119,-0.184ZM0.123,-0.208C0.171,-0.214 0.21,-0.223 0.24,-0.236C0.28,-0.254 0.31,-0.276 0.33,-0.301C0.35,-0.325 0.36,-0.349 0.36,-0.372C0.36,-0.385 0.356,-0.396 0.347,-0.405C0.339,-0.413 0.326,-0.417 0.311,-0.417C0.277,-0.417 0.242,-0.4 0.205,-0.365C0.168,-0.329 0.14,-0.277 0.123,-0.208Z" style="fill-rule:nonzero;"/>
                </g>
            </g>
            <g transform="matrix(-1.83697e-16,1,-1,-1.83697e-16,2763.37,383.321)">
                <g transform="matrix(50,0,0,50,548.527,652.515)">
                    <path d="M0.135,0.015L0.192,-0.537C0.195,-0.558 0.196,-0.574 0.196,-0.585C0.196,-0.604 0.19,-0.619 0.18,-0.628C0.169,-0.638 0.15,-0.643 0.122,-0.644L0.127,-0.662L0.375,-0.662L0.37,-0.644C0.336,-0.644 0.314,-0.638 0.302,-0.626C0.289,-0.614 0.281,-0.584 0.276,-0.537L0.24,-0.179L0.491,-0.567C0.492,-0.574 0.492,-0.579 0.492,-0.584C0.492,-0.602 0.486,-0.616 0.476,-0.626C0.465,-0.636 0.442,-0.642 0.406,-0.644L0.41,-0.662L0.678,-0.662L0.673,-0.644C0.642,-0.644 0.621,-0.641 0.61,-0.636C0.603,-0.633 0.596,-0.627 0.591,-0.619C0.585,-0.611 0.581,-0.597 0.578,-0.578C0.577,-0.573 0.573,-0.535 0.566,-0.465C0.559,-0.395 0.548,-0.3 0.534,-0.179L0.744,-0.498C0.766,-0.532 0.781,-0.557 0.787,-0.571C0.792,-0.585 0.795,-0.597 0.795,-0.606C0.795,-0.616 0.792,-0.624 0.784,-0.631C0.776,-0.638 0.763,-0.642 0.744,-0.644L0.748,-0.662L0.944,-0.662L0.939,-0.644C0.922,-0.643 0.906,-0.639 0.893,-0.631C0.88,-0.624 0.864,-0.611 0.846,-0.59C0.835,-0.579 0.814,-0.548 0.781,-0.498L0.449,0.015L0.431,0.015L0.484,-0.498L0.152,0.015L0.135,0.015Z" style="fill-rule:nonzero;"/>
                </g>
                <g transform="matrix(50,0,0,50,587.418,652.515)">
                    <path d="M0.052,-0.415L0.221,-0.442L0.15,-0.205C0.207,-0.302 0.259,-0.37 0.306,-0.409C0.332,-0.431 0.354,-0.442 0.37,-0.442C0.381,-0.442 0.389,-0.439 0.396,-0.432C0.402,-0.426 0.405,-0.417 0.405,-0.405C0.405,-0.383 0.399,-0.363 0.388,-0.343C0.38,-0.329 0.369,-0.321 0.354,-0.321C0.347,-0.321 0.341,-0.324 0.335,-0.329C0.33,-0.333 0.326,-0.341 0.325,-0.351C0.325,-0.357 0.323,-0.361 0.321,-0.363C0.318,-0.366 0.315,-0.367 0.312,-0.367C0.306,-0.367 0.301,-0.366 0.296,-0.363C0.287,-0.359 0.275,-0.346 0.257,-0.325C0.23,-0.293 0.201,-0.252 0.169,-0.201C0.156,-0.18 0.144,-0.155 0.134,-0.128C0.121,-0.091 0.113,-0.069 0.111,-0.062L0.095,-0L0.021,-0L0.111,-0.303C0.121,-0.338 0.126,-0.363 0.126,-0.378C0.126,-0.384 0.124,-0.389 0.119,-0.393C0.113,-0.398 0.104,-0.401 0.093,-0.401C0.086,-0.401 0.074,-0.399 0.056,-0.396L0.052,-0.415Z" style="fill-rule:nonzero;"/>
                </g>
                <g transform="matrix(50,0,0,50,605.021,652.515)">
                    <path d="M0.462,-0.289C0.462,-0.24 0.449,-0.192 0.424,-0.144C0.398,-0.096 0.362,-0.058 0.315,-0.03C0.269,-0.002 0.224,0.012 0.181,0.012C0.136,0.012 0.1,-0.003 0.072,-0.031C0.043,-0.059 0.029,-0.096 0.029,-0.142C0.029,-0.189 0.043,-0.237 0.071,-0.286C0.098,-0.334 0.135,-0.372 0.181,-0.4C0.227,-0.428 0.271,-0.442 0.314,-0.442C0.357,-0.442 0.393,-0.428 0.421,-0.399C0.448,-0.371 0.462,-0.334 0.462,-0.289ZM0.381,-0.323C0.381,-0.353 0.374,-0.376 0.359,-0.392C0.344,-0.408 0.325,-0.417 0.302,-0.417C0.254,-0.417 0.21,-0.382 0.17,-0.314C0.129,-0.245 0.109,-0.177 0.109,-0.109C0.109,-0.078 0.117,-0.055 0.133,-0.038C0.148,-0.021 0.168,-0.013 0.192,-0.013C0.238,-0.013 0.281,-0.047 0.321,-0.115C0.361,-0.183 0.381,-0.252 0.381,-0.323Z" style="fill-rule:nonzero;"/>
                </g>
                <g transform="matrix(50,0,0,50,630.021,652.515)">
                    <path d="M0.26,-0.563L0.222,-0.43L0.298,-0.43L0.29,-0.399L0.214,-0.399L0.13,-0.111C0.121,-0.08 0.116,-0.06 0.116,-0.051C0.116,-0.046 0.118,-0.042 0.12,-0.039C0.123,-0.036 0.126,-0.034 0.129,-0.034C0.138,-0.034 0.148,-0.04 0.162,-0.051C0.169,-0.058 0.187,-0.078 0.214,-0.111L0.23,-0.099C0.2,-0.056 0.172,-0.025 0.145,-0.007C0.127,0.006 0.108,0.012 0.09,0.012C0.076,0.012 0.064,0.007 0.055,-0.002C0.046,-0.011 0.041,-0.022 0.041,-0.036C0.041,-0.054 0.046,-0.081 0.057,-0.117L0.138,-0.399L0.064,-0.399L0.069,-0.418C0.105,-0.428 0.135,-0.443 0.159,-0.462C0.182,-0.482 0.209,-0.515 0.238,-0.563L0.26,-0.563Z" style="fill-rule:nonzero;"/>
                </g>
                <g transform="matrix(50,0,0,50,643.912,652.515)">
                    <path d="M0.469,-0.442L0.374,-0.111L0.363,-0.066C0.362,-0.062 0.362,-0.059 0.362,-0.056C0.362,-0.05 0.363,-0.046 0.367,-0.042C0.369,-0.039 0.373,-0.038 0.376,-0.038C0.381,-0.038 0.386,-0.04 0.393,-0.045C0.406,-0.055 0.423,-0.074 0.444,-0.104L0.46,-0.092C0.438,-0.058 0.415,-0.033 0.391,-0.015C0.367,0.003 0.345,0.012 0.325,0.012C0.311,0.012 0.301,0.008 0.294,0.001C0.287,-0.006 0.283,-0.016 0.283,-0.029C0.283,-0.045 0.287,-0.066 0.294,-0.092L0.304,-0.129C0.262,-0.073 0.222,-0.034 0.187,-0.012C0.161,0.004 0.136,0.012 0.111,0.012C0.087,0.012 0.067,0.002 0.049,-0.018C0.032,-0.038 0.023,-0.065 0.023,-0.099C0.023,-0.151 0.039,-0.205 0.07,-0.263C0.101,-0.32 0.141,-0.366 0.188,-0.401C0.226,-0.428 0.261,-0.442 0.294,-0.442C0.314,-0.442 0.331,-0.437 0.344,-0.426C0.357,-0.416 0.367,-0.399 0.374,-0.375L0.392,-0.43L0.469,-0.442ZM0.295,-0.417C0.275,-0.417 0.252,-0.407 0.229,-0.387C0.196,-0.36 0.166,-0.319 0.14,-0.264C0.115,-0.21 0.102,-0.161 0.102,-0.117C0.102,-0.095 0.107,-0.077 0.118,-0.064C0.129,-0.051 0.142,-0.045 0.156,-0.045C0.192,-0.045 0.23,-0.071 0.272,-0.124C0.328,-0.193 0.355,-0.265 0.355,-0.338C0.355,-0.366 0.35,-0.386 0.339,-0.398C0.329,-0.41 0.314,-0.417 0.295,-0.417Z" style="fill-rule:nonzero;"/>
                </g>
                <g transform="matrix(50,0,0,50,505.961,704.639)">
                    <path d="M0.419,-0.442L0.453,-0.076C0.509,-0.142 0.555,-0.204 0.588,-0.263C0.608,-0.297 0.618,-0.322 0.618,-0.337C0.618,-0.344 0.617,-0.35 0.613,-0.356C0.612,-0.359 0.607,-0.363 0.598,-0.369C0.589,-0.375 0.583,-0.38 0.579,-0.386C0.576,-0.392 0.574,-0.399 0.574,-0.406C0.574,-0.416 0.577,-0.424 0.585,-0.431C0.592,-0.438 0.602,-0.442 0.614,-0.442C0.627,-0.442 0.638,-0.437 0.648,-0.427C0.657,-0.417 0.662,-0.404 0.662,-0.387C0.662,-0.37 0.659,-0.354 0.654,-0.34C0.645,-0.312 0.625,-0.276 0.597,-0.231C0.563,-0.178 0.527,-0.129 0.49,-0.084C0.454,-0.038 0.427,-0.007 0.409,0.012L0.391,0.012L0.359,-0.326L0.157,0.012L0.136,0.012C0.133,-0.127 0.126,-0.237 0.115,-0.317C0.11,-0.351 0.102,-0.373 0.09,-0.383C0.082,-0.391 0.07,-0.395 0.053,-0.395C0.044,-0.395 0.032,-0.394 0.017,-0.392L0.017,-0.409L0.157,-0.442C0.177,-0.388 0.189,-0.304 0.195,-0.191C0.197,-0.149 0.199,-0.122 0.2,-0.111L0.401,-0.442L0.419,-0.442Z" style="fill-rule:nonzero;"/>
                </g>
                <g transform="matrix(50,0,0,50,539.31,704.639)">
                    <path d="M0.16,-0.442C0.171,-0.423 0.178,-0.405 0.183,-0.389C0.187,-0.372 0.191,-0.34 0.195,-0.292L0.217,-0.052C0.236,-0.075 0.265,-0.112 0.302,-0.163C0.32,-0.188 0.342,-0.222 0.368,-0.264C0.384,-0.29 0.394,-0.308 0.397,-0.319C0.399,-0.324 0.4,-0.329 0.4,-0.335C0.4,-0.339 0.399,-0.341 0.397,-0.344C0.395,-0.346 0.389,-0.349 0.379,-0.352C0.37,-0.355 0.362,-0.361 0.355,-0.369C0.349,-0.377 0.346,-0.387 0.346,-0.397C0.346,-0.411 0.35,-0.422 0.357,-0.43C0.365,-0.438 0.375,-0.442 0.387,-0.442C0.401,-0.442 0.413,-0.436 0.423,-0.424C0.433,-0.412 0.438,-0.396 0.438,-0.375C0.438,-0.349 0.43,-0.32 0.412,-0.287C0.395,-0.254 0.361,-0.203 0.311,-0.135C0.26,-0.066 0.2,0.008 0.128,0.089C0.079,0.145 0.043,0.18 0.019,0.194C-0.005,0.209 -0.025,0.216 -0.042,0.216C-0.052,0.216 -0.061,0.212 -0.069,0.204C-0.076,0.197 -0.08,0.188 -0.08,0.178C-0.08,0.165 -0.075,0.153 -0.064,0.143C-0.054,0.133 -0.042,0.127 -0.03,0.127C-0.023,0.127 -0.018,0.129 -0.014,0.132C-0.011,0.133 -0.008,0.138 -0.005,0.146C-0.002,0.153 0.001,0.159 0.003,0.161C0.005,0.163 0.007,0.164 0.009,0.164C0.011,0.164 0.015,0.162 0.02,0.159C0.037,0.148 0.058,0.13 0.082,0.106C0.113,0.074 0.136,0.048 0.151,0.028L0.124,-0.282C0.119,-0.333 0.113,-0.364 0.104,-0.375C0.094,-0.386 0.079,-0.392 0.058,-0.392C0.051,-0.392 0.039,-0.391 0.021,-0.389L0.017,-0.407L0.16,-0.442Z" style="fill-rule:nonzero;"/>
                </g>
                <g transform="matrix(50,0,0,50,561.503,704.639)">
                    <path d="M0.229,-0.635C0.243,-0.635 0.254,-0.63 0.264,-0.621C0.274,-0.611 0.278,-0.6 0.278,-0.586C0.278,-0.572 0.274,-0.561 0.264,-0.551C0.254,-0.541 0.243,-0.537 0.229,-0.537C0.215,-0.537 0.204,-0.541 0.194,-0.551C0.184,-0.561 0.18,-0.572 0.18,-0.586C0.18,-0.6 0.184,-0.611 0.194,-0.621C0.204,-0.63 0.215,-0.635 0.229,-0.635ZM0.237,-0.442L0.11,-0.005C0.088,0.073 0.057,0.13 0.018,0.164C-0.021,0.199 -0.064,0.216 -0.109,0.216C-0.13,0.216 -0.145,0.211 -0.156,0.202C-0.167,0.192 -0.172,0.181 -0.172,0.168C-0.172,0.158 -0.168,0.149 -0.16,0.141C-0.152,0.134 -0.143,0.13 -0.132,0.13C-0.123,0.13 -0.115,0.133 -0.107,0.139C-0.102,0.144 -0.099,0.15 -0.099,0.156C-0.099,0.164 -0.103,0.172 -0.111,0.178C-0.115,0.181 -0.118,0.184 -0.118,0.187L-0.117,0.189C-0.116,0.19 -0.114,0.191 -0.112,0.192C-0.11,0.193 -0.107,0.193 -0.104,0.193C-0.077,0.193 -0.055,0.184 -0.036,0.168C-0.017,0.151 -0,0.118 0.014,0.067L0.124,-0.308C0.134,-0.344 0.14,-0.365 0.14,-0.369C0.14,-0.376 0.136,-0.383 0.129,-0.39C0.122,-0.396 0.113,-0.399 0.103,-0.399C0.098,-0.399 0.093,-0.398 0.088,-0.397C0.084,-0.397 0.077,-0.396 0.069,-0.395L0.069,-0.412L0.237,-0.442Z" style="fill-rule:nonzero;"/>
                </g>
                <g transform="matrix(50,0,0,50,575.394,704.639)">
                    <path d="M0.363,-0.442L0.333,-0.292L0.315,-0.292C0.313,-0.336 0.304,-0.367 0.287,-0.387C0.27,-0.407 0.249,-0.417 0.224,-0.417C0.204,-0.417 0.188,-0.411 0.176,-0.4C0.164,-0.389 0.158,-0.376 0.158,-0.36C0.158,-0.35 0.161,-0.339 0.165,-0.33C0.17,-0.32 0.18,-0.306 0.196,-0.289C0.239,-0.242 0.266,-0.208 0.278,-0.184C0.291,-0.161 0.297,-0.139 0.297,-0.118C0.297,-0.084 0.283,-0.054 0.255,-0.028C0.226,-0.001 0.191,0.012 0.148,0.012C0.125,0.012 0.097,0.006 0.067,-0.005C0.056,-0.009 0.048,-0.011 0.042,-0.011C0.027,-0.011 0.016,-0.003 0.009,0.012L-0.009,0.012L0.021,-0.146L0.039,-0.146C0.041,-0.097 0.051,-0.062 0.069,-0.042C0.088,-0.021 0.113,-0.011 0.146,-0.011C0.17,-0.011 0.19,-0.018 0.204,-0.031C0.219,-0.045 0.226,-0.062 0.226,-0.083C0.226,-0.096 0.223,-0.108 0.218,-0.119C0.209,-0.138 0.19,-0.165 0.161,-0.2C0.132,-0.234 0.113,-0.26 0.105,-0.277C0.096,-0.295 0.092,-0.312 0.092,-0.329C0.092,-0.361 0.104,-0.387 0.127,-0.409C0.15,-0.431 0.179,-0.442 0.215,-0.442C0.226,-0.442 0.235,-0.441 0.244,-0.439C0.248,-0.438 0.259,-0.435 0.276,-0.428C0.292,-0.422 0.304,-0.419 0.309,-0.419C0.323,-0.419 0.335,-0.427 0.344,-0.442L0.363,-0.442ZM0.377,-0.685L0.233,-0.517L0.217,-0.517L0.267,-0.685L0.377,-0.685Z" style="fill-rule:nonzero;"/>
                </g>
                <g transform="matrix(50,0,0,50,594.852,704.639)">
                    <path d="M0.386,-0.106C0.352,-0.066 0.318,-0.036 0.284,-0.017C0.249,0.002 0.213,0.012 0.174,0.012C0.128,0.012 0.092,-0.001 0.066,-0.027C0.04,-0.053 0.027,-0.088 0.027,-0.132C0.027,-0.182 0.041,-0.231 0.069,-0.279C0.097,-0.327 0.134,-0.367 0.181,-0.397C0.228,-0.427 0.275,-0.442 0.32,-0.442C0.355,-0.442 0.382,-0.434 0.399,-0.42C0.417,-0.405 0.426,-0.387 0.426,-0.365C0.426,-0.345 0.42,-0.328 0.407,-0.313C0.398,-0.302 0.387,-0.297 0.374,-0.297C0.363,-0.297 0.355,-0.3 0.348,-0.307C0.342,-0.313 0.338,-0.321 0.338,-0.331C0.338,-0.337 0.34,-0.343 0.342,-0.348C0.344,-0.353 0.35,-0.36 0.357,-0.367C0.365,-0.374 0.369,-0.38 0.371,-0.383C0.373,-0.386 0.374,-0.389 0.374,-0.393C0.374,-0.4 0.37,-0.406 0.364,-0.41C0.355,-0.417 0.341,-0.42 0.324,-0.42C0.292,-0.42 0.261,-0.409 0.229,-0.386C0.198,-0.364 0.172,-0.332 0.149,-0.291C0.123,-0.24 0.109,-0.19 0.109,-0.14C0.109,-0.107 0.119,-0.081 0.138,-0.061C0.157,-0.042 0.182,-0.032 0.215,-0.032C0.24,-0.032 0.265,-0.038 0.289,-0.051C0.314,-0.064 0.341,-0.086 0.372,-0.119L0.386,-0.106Z" style="fill-rule:nonzero;"/>
                </g>
                <g transform="matrix(50,0,0,50,617.045,704.639)">
                    <path d="M0.224,-0.636C0.237,-0.636 0.249,-0.631 0.258,-0.622C0.268,-0.612 0.272,-0.601 0.272,-0.587C0.272,-0.574 0.268,-0.562 0.258,-0.552C0.248,-0.543 0.237,-0.538 0.224,-0.538C0.21,-0.538 0.199,-0.543 0.189,-0.552C0.18,-0.562 0.175,-0.574 0.175,-0.587C0.175,-0.601 0.18,-0.612 0.189,-0.622C0.198,-0.631 0.21,-0.636 0.224,-0.636ZM0.23,-0.442L0.133,-0.1C0.127,-0.076 0.124,-0.063 0.124,-0.058C0.124,-0.053 0.125,-0.049 0.128,-0.045C0.131,-0.042 0.135,-0.041 0.139,-0.041C0.144,-0.041 0.15,-0.043 0.157,-0.048C0.175,-0.063 0.194,-0.084 0.213,-0.111L0.23,-0.1C0.208,-0.066 0.182,-0.037 0.152,-0.014C0.13,0.003 0.109,0.012 0.088,0.012C0.075,0.012 0.064,0.008 0.056,-0C0.047,-0.008 0.043,-0.018 0.043,-0.03C0.043,-0.042 0.047,-0.062 0.055,-0.09L0.119,-0.309C0.129,-0.345 0.134,-0.367 0.134,-0.376C0.134,-0.384 0.132,-0.389 0.127,-0.394C0.122,-0.399 0.115,-0.401 0.106,-0.401C0.099,-0.401 0.084,-0.399 0.062,-0.396L0.062,-0.415L0.23,-0.442Z" style="fill-rule:nonzero;"/>
                </g>
                <g transform="matrix(50,0,0,50,630.936,704.639)">
                    <path d="M0.462,-0.289C0.462,-0.24 0.449,-0.192 0.424,-0.144C0.398,-0.096 0.362,-0.058 0.315,-0.03C0.269,-0.002 0.224,0.012 0.181,0.012C0.136,0.012 0.1,-0.003 0.072,-0.031C0.043,-0.059 0.029,-0.096 0.029,-0.142C0.029,-0.189 0.043,-0.237 0.071,-0.286C0.098,-0.334 0.135,-0.372 0.181,-0.4C0.227,-0.428 0.271,-0.442 0.314,-0.442C0.357,-0.442 0.393,-0.428 0.421,-0.399C0.448,-0.371 0.462,-0.334 0.462,-0.289ZM0.381,-0.323C0.381,-0.353 0.374,-0.376 0.359,-0.392C0.344,-0.408 0.325,-0.417 0.302,-0.417C0.254,-0.417 0.21,-0.382 0.17,-0.314C0.129,-0.245 0.109,-0.177 0.109,-0.109C0.109,-0.078 0.117,-0.055 0.133,-0.038C0.148,-0.021 0.168,-0.013 0.192,-0.013C0.238,-0.013 0.281,-0.047 0.321,-0.115C0.361,-0.183 0.381,-0.252 0.381,-0.323Z" style="fill-rule:nonzero;"/>
                </g>
                <g transform="matrix(50,0,0,50,655.936,704.639)">
                    <path d="M0.419,-0.442L0.453,-0.076C0.509,-0.142 0.555,-0.204 0.588,-0.263C0.608,-0.297 0.618,-0.322 0.618,-0.337C0.618,-0.344 0.617,-0.35 0.613,-0.356C0.612,-0.359 0.607,-0.363 0.598,-0.369C0.589,-0.375 0.583,-0.38 0.579,-0.386C0.576,-0.392 0.574,-0.399 0.574,-0.406C0.574,-0.416 0.577,-0.424 0.585,-0.431C0.592,-0.438 0.602,-0.442 0.614,-0.442C0.627,-0.442 0.638,-0.437 0.648,-0.427C0.657,-0.417 0.662,-0.404 0.662,-0.387C0.662,-0.37 0.659,-0.354 0.654,-0.34C0.645,-0.312 0.625,-0.276 0.597,-0.231C0.563,-0.178 0.527,-0.129 0.49,-0.084C0.454,-0.038 0.427,-0.007 0.409,0.012L0.391,0.012L0.359,-0.326L0.157,0.012L0.136,0.012C0.133,-0.127 0.126,-0.237 0.115,-0.317C0.11,-0.351 0.102,-0.373 0.09,-0.383C0.082,-0.391 0.07,-0.395 0.053,-0.395C0.044,-0.395 0.032,-0.394 0.017,-0.392L0.017,-0.409L0.157,-0.442C0.177,-0.388 0.189,-0.304 0.195,-0.191C0.197,-0.149 0.199,-0.122 0.2,-0.111L0.401,-0.442L0.419,-0.442Z" style="fill-rule:nonzero;"/>
                </g>
                <g transform="matrix(50,0,0,50,689.286,704.639)">
                    <path d="M0.119,-0.184C0.117,-0.168 0.116,-0.154 0.116,-0.144C0.116,-0.115 0.126,-0.09 0.146,-0.07C0.167,-0.049 0.192,-0.039 0.221,-0.039C0.245,-0.039 0.267,-0.044 0.289,-0.053C0.31,-0.063 0.343,-0.084 0.385,-0.117L0.396,-0.103C0.318,-0.027 0.245,0.012 0.175,0.012C0.127,0.012 0.091,-0.003 0.067,-0.033C0.043,-0.063 0.031,-0.096 0.031,-0.132C0.031,-0.181 0.046,-0.23 0.076,-0.281C0.106,-0.332 0.144,-0.372 0.189,-0.4C0.234,-0.428 0.281,-0.442 0.329,-0.442C0.363,-0.442 0.389,-0.435 0.405,-0.421C0.422,-0.407 0.43,-0.39 0.43,-0.371C0.43,-0.344 0.419,-0.318 0.398,-0.293C0.37,-0.261 0.328,-0.235 0.273,-0.215C0.236,-0.202 0.185,-0.192 0.119,-0.184ZM0.123,-0.208C0.171,-0.214 0.21,-0.223 0.24,-0.236C0.28,-0.254 0.31,-0.276 0.33,-0.301C0.35,-0.325 0.36,-0.349 0.36,-0.372C0.36,-0.385 0.356,-0.396 0.347,-0.405C0.339,-0.413 0.326,-0.417 0.311,-0.417C0.277,-0.417 0.242,-0.4 0.205,-0.365C0.168,-0.329 0.14,-0.277 0.123,-0.208Z" style="fill-rule:nonzero;"/>
                </g>
            </g>
            <g transform="matrix(1,0,0,1,1349.68,347.618)">
                <g transform="matrix(50,0,0,50,505.961,652.515)">
                    <path d="M0.146,-0.662L0.649,-0.662L0.595,-0.486L0.577,-0.486C0.583,-0.512 0.586,-0.535 0.586,-0.555C0.586,-0.579 0.579,-0.597 0.564,-0.609C0.553,-0.618 0.524,-0.623 0.479,-0.623L0.426,-0.623L0.295,-0.167C0.279,-0.109 0.271,-0.074 0.271,-0.061C0.271,-0.048 0.276,-0.038 0.286,-0.03C0.297,-0.022 0.315,-0.018 0.341,-0.018L0.364,-0.018L0.358,-0L0.07,-0L0.075,-0.018L0.088,-0.018C0.113,-0.018 0.133,-0.022 0.146,-0.03C0.156,-0.036 0.164,-0.046 0.172,-0.06C0.18,-0.075 0.19,-0.105 0.204,-0.152L0.341,-0.623L0.302,-0.623C0.264,-0.623 0.233,-0.618 0.21,-0.608C0.186,-0.598 0.168,-0.584 0.153,-0.565C0.139,-0.547 0.127,-0.521 0.118,-0.486L0.1,-0.486L0.146,-0.662Z" style="fill-rule:nonzero;"/>
                </g>
                <g transform="matrix(29.15,0,0,29.15,533.768,669.165)">
                    <path d="M0.704,-0.677L0.654,-0.463L0.637,-0.463L0.635,-0.517C0.633,-0.536 0.629,-0.554 0.624,-0.569C0.618,-0.584 0.609,-0.597 0.597,-0.609C0.585,-0.62 0.571,-0.629 0.553,-0.635C0.535,-0.641 0.515,-0.645 0.493,-0.645C0.435,-0.645 0.384,-0.629 0.34,-0.597C0.285,-0.556 0.241,-0.499 0.209,-0.424C0.183,-0.363 0.17,-0.301 0.17,-0.238C0.17,-0.174 0.189,-0.123 0.227,-0.085C0.264,-0.046 0.313,-0.027 0.373,-0.027C0.418,-0.027 0.458,-0.037 0.493,-0.058C0.529,-0.078 0.562,-0.109 0.592,-0.151L0.615,-0.151C0.579,-0.094 0.539,-0.052 0.496,-0.025C0.452,0.002 0.4,0.015 0.339,0.015C0.285,0.015 0.237,0.004 0.195,-0.019C0.154,-0.041 0.122,-0.073 0.1,-0.114C0.078,-0.155 0.067,-0.199 0.067,-0.247C0.067,-0.319 0.087,-0.389 0.125,-0.458C0.164,-0.526 0.217,-0.58 0.285,-0.619C0.352,-0.658 0.421,-0.677 0.489,-0.677C0.521,-0.677 0.558,-0.67 0.598,-0.654C0.615,-0.648 0.628,-0.645 0.636,-0.645C0.644,-0.645 0.65,-0.646 0.656,-0.649C0.662,-0.653 0.672,-0.662 0.686,-0.677L0.704,-0.677Z" style="fill-rule:nonzero;"/>
                </g>
                <g transform="matrix(29.15,0,0,29.15,553.211,669.165)">
                    <path d="M0.416,-0L0.31,-0.322C0.285,-0.321 0.259,-0.324 0.233,-0.329L0.176,-0.129C0.169,-0.103 0.165,-0.081 0.165,-0.063C0.165,-0.049 0.17,-0.039 0.179,-0.031C0.186,-0.025 0.206,-0.021 0.238,-0.018L0.233,-0L-0.023,-0L-0.018,-0.018C0.007,-0.019 0.023,-0.021 0.031,-0.025C0.045,-0.031 0.054,-0.038 0.061,-0.048C0.071,-0.063 0.082,-0.09 0.093,-0.129L0.209,-0.529C0.217,-0.556 0.221,-0.576 0.221,-0.591C0.221,-0.606 0.215,-0.618 0.202,-0.629C0.19,-0.639 0.173,-0.644 0.15,-0.644L0.156,-0.662L0.372,-0.662C0.444,-0.662 0.496,-0.648 0.528,-0.621C0.56,-0.594 0.576,-0.558 0.576,-0.513C0.576,-0.471 0.559,-0.432 0.527,-0.396C0.494,-0.361 0.449,-0.339 0.392,-0.329L0.457,-0.135C0.472,-0.088 0.488,-0.057 0.503,-0.042C0.519,-0.028 0.544,-0.02 0.579,-0.018L0.574,-0L0.416,-0ZM0.242,-0.357C0.263,-0.354 0.281,-0.353 0.297,-0.353C0.353,-0.353 0.398,-0.368 0.43,-0.399C0.463,-0.43 0.479,-0.469 0.479,-0.515C0.479,-0.551 0.469,-0.579 0.448,-0.598C0.428,-0.617 0.398,-0.627 0.357,-0.627C0.347,-0.627 0.334,-0.626 0.32,-0.623L0.242,-0.357Z" style="fill-rule:nonzero;"/>
                </g>
            </g>
            <g transform="matrix(1,0,0,1,668.613,347.839)">
                <g transform="matrix(50,0,0,50,505.961,652.515)">
                    <path d="M0.146,-0.662L0.649,-0.662L0.595,-0.486L0.577,-0.486C0.583,-0.512 0.586,-0.535 0.586,-0.555C0.586,-0.579 0.579,-0.597 0.564,-0.609C0.553,-0.618 0.524,-0.623 0.479,-0.623L0.426,-0.623L0.295,-0.167C0.279,-0.109 0.271,-0.074 0.271,-0.061C0.271,-0.048 0.276,-0.038 0.286,-0.03C0.297,-0.022 0.315,-0.018 0.341,-0.018L0.364,-0.018L0.358,-0L0.07,-0L0.075,-0.018L0.088,-0.018C0.113,-0.018 0.133,-0.022 0.146,-0.03C0.156,-0.036 0.164,-0.046 0.172,-0.06C0.18,-0.075 0.19,-0.105 0.204,-0.152L0.341,-0.623L0.302,-0.623C0.264,-0.623 0.233,-0.618 0.21,-0.608C0.186,-0.598 0.168,-0.584 0.153,-0.565C0.139,-0.547 0.127,-0.521 0.118,-0.486L0.1,-0.486L0.146,-0.662Z" style="fill-rule:nonzero;"/>
                </g>
                <g transform="matrix(29.15,0,0,29.15,533.768,669.165)">
                    <path d="M0.458,-0L-0.032,-0L-0.025,-0.018C0.001,-0.019 0.018,-0.021 0.027,-0.024C0.041,-0.03 0.051,-0.038 0.057,-0.047C0.067,-0.062 0.078,-0.089 0.089,-0.128L0.206,-0.531C0.216,-0.564 0.221,-0.589 0.221,-0.604C0.221,-0.617 0.216,-0.626 0.207,-0.633C0.198,-0.64 0.181,-0.644 0.157,-0.644C0.151,-0.644 0.147,-0.644 0.144,-0.644L0.149,-0.662L0.419,-0.662L0.416,-0.644C0.385,-0.644 0.364,-0.641 0.351,-0.635C0.338,-0.629 0.328,-0.62 0.319,-0.606C0.313,-0.598 0.304,-0.57 0.291,-0.524L0.176,-0.128C0.167,-0.098 0.163,-0.078 0.163,-0.066C0.163,-0.058 0.167,-0.051 0.176,-0.043C0.181,-0.039 0.194,-0.036 0.213,-0.036L0.277,-0.036C0.324,-0.036 0.361,-0.042 0.388,-0.054C0.408,-0.063 0.427,-0.076 0.444,-0.093C0.453,-0.103 0.469,-0.127 0.492,-0.166L0.505,-0.188L0.523,-0.188L0.458,-0Z" style="fill-rule:nonzero;"/>
                </g>
                <g transform="matrix(29.15,0,0,29.15,549.98,669.165)">
                    <path d="M0.345,-0L0.016,-0L0.016,-0.018C0.184,-0.165 0.295,-0.281 0.349,-0.364C0.374,-0.403 0.386,-0.444 0.386,-0.486C0.386,-0.52 0.376,-0.548 0.355,-0.569C0.334,-0.59 0.307,-0.601 0.274,-0.601C0.228,-0.601 0.19,-0.579 0.161,-0.535L0.144,-0.543C0.16,-0.585 0.184,-0.618 0.216,-0.641C0.248,-0.664 0.283,-0.676 0.32,-0.676C0.362,-0.676 0.397,-0.661 0.426,-0.633C0.454,-0.604 0.469,-0.569 0.469,-0.528C0.469,-0.499 0.464,-0.473 0.454,-0.448C0.438,-0.41 0.409,-0.368 0.367,-0.32C0.303,-0.248 0.218,-0.165 0.112,-0.071L0.278,-0.071C0.305,-0.071 0.326,-0.076 0.344,-0.087C0.361,-0.098 0.373,-0.113 0.381,-0.132L0.4,-0.132L0.345,-0Z" style="fill-rule:nonzero;"/>
                </g>
            </g>
            <g transform="matrix(1,0,0,1,200.107,347.668)">
                <g transform="matrix(50,0,0,50,505.961,652.515)">
                    <path d="M0.146,-0.662L0.649,-0.662L0.595,-0.486L0.577,-0.486C0.583,-0.512 0.586,-0.535 0.586,-0.555C0.586,-0.579 0.579,-0.597 0.564,-0.609C0.553,-0.618 0.524,-0.623 0.479,-0.623L0.426,-0.623L0.295,-0.167C0.279,-0.109 0.271,-0.074 0.271,-0.061C0.271,-0.048 0.276,-0.038 0.286,-0.03C0.297,-0.022 0.315,-0.018 0.341,-0.018L0.364,-0.018L0.358,-0L0.07,-0L0.075,-0.018L0.088,-0.018C0.113,-0.018 0.133,-0.022 0.146,-0.03C0.156,-0.036 0.164,-0.046 0.172,-0.06C0.18,-0.075 0.19,-0.105 0.204,-0.152L0.341,-0.623L0.302,-0.623C0.264,-0.623 0.233,-0.618 0.21,-0.608C0.186,-0.598 0.168,-0.584 0.153,-0.565C0.139,-0.547 0.127,-0.521 0.118,-0.486L0.1,-0.486L0.146,-0.662Z" style="fill-rule:nonzero;"/>
                </g>
                <g transform="matrix(29.15,0,0,29.15,533.768,669.165)">
                    <path d="M0.297,-0.694L0.13,-0.113C0.122,-0.084 0.118,-0.067 0.118,-0.06C0.118,-0.055 0.12,-0.051 0.123,-0.048C0.126,-0.045 0.13,-0.043 0.134,-0.043C0.14,-0.043 0.147,-0.046 0.154,-0.051C0.171,-0.065 0.189,-0.085 0.208,-0.113L0.222,-0.098C0.191,-0.055 0.163,-0.024 0.137,-0.007C0.118,0.006 0.099,0.012 0.082,0.012C0.07,0.012 0.059,0.007 0.051,-0.001C0.043,-0.009 0.039,-0.019 0.039,-0.03C0.039,-0.042 0.044,-0.066 0.054,-0.103L0.187,-0.561C0.197,-0.598 0.203,-0.619 0.203,-0.625C0.203,-0.633 0.2,-0.639 0.193,-0.644C0.187,-0.649 0.178,-0.652 0.165,-0.652C0.157,-0.652 0.146,-0.651 0.13,-0.648L0.13,-0.667L0.297,-0.694Z" style="fill-rule:nonzero;"/>
                </g>
                <g transform="matrix(29.15,0,0,29.15,541.867,669.165)">
                    <path d="M0.386,-0.106C0.352,-0.066 0.318,-0.036 0.284,-0.017C0.249,0.002 0.213,0.012 0.174,0.012C0.128,0.012 0.092,-0.001 0.066,-0.027C0.04,-0.053 0.027,-0.088 0.027,-0.132C0.027,-0.182 0.041,-0.231 0.069,-0.279C0.097,-0.327 0.134,-0.367 0.181,-0.397C0.228,-0.427 0.275,-0.442 0.32,-0.442C0.355,-0.442 0.382,-0.434 0.399,-0.42C0.417,-0.405 0.426,-0.387 0.426,-0.365C0.426,-0.345 0.42,-0.328 0.407,-0.313C0.398,-0.302 0.387,-0.297 0.374,-0.297C0.363,-0.297 0.355,-0.3 0.348,-0.307C0.342,-0.313 0.338,-0.321 0.338,-0.331C0.338,-0.337 0.34,-0.343 0.342,-0.348C0.344,-0.353 0.35,-0.36 0.357,-0.367C0.365,-0.374 0.369,-0.38 0.371,-0.383C0.373,-0.386 0.374,-0.389 0.374,-0.393C0.374,-0.4 0.37,-0.406 0.364,-0.41C0.355,-0.417 0.341,-0.42 0.324,-0.42C0.292,-0.42 0.261,-0.409 0.229,-0.386C0.198,-0.364 0.172,-0.332 0.149,-0.291C0.123,-0.24 0.109,-0.19 0.109,-0.14C0.109,-0.107 0.119,-0.081 0.138,-0.061C0.157,-0.042 0.182,-0.032 0.215,-0.032C0.24,-0.032 0.265,-0.038 0.289,-0.051C0.314,-0.064 0.341,-0.086 0.372,-0.119L0.386,-0.106Z" style="fill-rule:nonzero;"/>
                </g>
            </g>
            <g transform="matrix(1,0,0,1,1144.99,347.668)">
                <g transform="matrix(50,0,0,50,505.961,652.515)">
                    <path d="M0.146,-0.662L0.649,-0.662L0.595,-0.486L0.577,-0.486C0.583,-0.512 0.586,-0.535 0.586,-0.555C0.586,-0.579 0.579,-0.597 0.564,-0.609C0.553,-0.618 0.524,-0.623 0.479,-0.623L0.426,-0.623L0.295,-0.167C0.279,-0.109 0.271,-0.074 0.271,-0.061C0.271,-0.048 0.276,-0.038 0.286,-0.03C0.297,-0.022 0.315,-0.018 0.341,-0.018L0.364,-0.018L0.358,-0L0.07,-0L0.075,-0.018L0.088,-0.018C0.113,-0.018 0.133,-0.022 0.146,-0.03C0.156,-0.036 0.164,-0.046 0.172,-0.06C0.18,-0.075 0.19,-0.105 0.204,-0.152L0.341,-0.623L0.302,-0.623C0.264,-0.623 0.233,-0.618 0.21,-0.608C0.186,-0.598 0.168,-0.584 0.153,-0.565C0.139,-0.547 0.127,-0.521 0.118,-0.486L0.1,-0.486L0.146,-0.662Z" style="fill-rule:nonzero;"/>
                </g>
                <g transform="matrix(29.15,0,0,29.15,533.768,669.165)">
                    <path d="M0.297,-0.694L0.13,-0.113C0.122,-0.084 0.118,-0.067 0.118,-0.06C0.118,-0.055 0.12,-0.051 0.123,-0.048C0.126,-0.045 0.13,-0.043 0.134,-0.043C0.14,-0.043 0.147,-0.046 0.154,-0.051C0.171,-0.065 0.189,-0.085 0.208,-0.113L0.222,-0.098C0.191,-0.055 0.163,-0.024 0.137,-0.007C0.118,0.006 0.099,0.012 0.082,0.012C0.07,0.012 0.059,0.007 0.051,-0.001C0.043,-0.009 0.039,-0.019 0.039,-0.03C0.039,-0.042 0.044,-0.066 0.054,-0.103L0.187,-0.561C0.197,-0.598 0.203,-0.619 0.203,-0.625C0.203,-0.633 0.2,-0.639 0.193,-0.644C0.187,-0.649 0.178,-0.652 0.165,-0.652C0.157,-0.652 0.146,-0.651 0.13,-0.648L0.13,-0.667L0.297,-0.694Z" style="fill-rule:nonzero;"/>
                </g>
                <g transform="matrix(29.15,0,0,29.15,541.867,669.165)">
                    <path d="M0.386,-0.106C0.352,-0.066 0.318,-0.036 0.284,-0.017C0.249,0.002 0.213,0.012 0.174,0.012C0.128,0.012 0.092,-0.001 0.066,-0.027C0.04,-0.053 0.027,-0.088 0.027,-0.132C0.027,-0.182 0.041,-0.231 0.069,-0.279C0.097,-0.327 0.134,-0.367 0.181,-0.397C0.228,-0.427 0.275,-0.442 0.32,-0.442C0.355,-0.442 0.382,-0.434 0.399,-0.42C0.417,-0.405 0.426,-0.387 0.426,-0.365C0.426,-0.345 0.42,-0.328 0.407,-0.313C0.398,-0.302 0.387,-0.297 0.374,-0.297C0.363,-0.297 0.355,-0.3 0.348,-0.307C0.342,-0.313 0.338,-0.321 0.338,-0.331C0.338,-0.337 0.34,-0.343 0.342,-0.348C0.344,-0.353 0.35,-0.36 0.357,-0.367C0.365,-0.374 0.369,-0.38 0.371,-0.383C0.373,-0.386 0.374,-0.389 0.374,-0.393C0.374,-0.4 0.37,-0.406 0.364,-0.41C0.355,-0.417 0.341,-0.42 0.324,-0.42C0.292,-0.42 0.261,-0.409 0.229,-0.386C0.198,-0.364 0.172,-0.332 0.149,-0.291C0.123,-0.24 0.109,-0.19 0.109,-0.14C0.109,-0.107 0.119,-0.081 0.138,-0.061C0.157,-0.042 0.182,-0.032 0.215,-0.032C0.24,-0.032 0.265,-0.038 0.289,-0.051C0.314,-0.064 0.341,-0.086 0.372,-0.119L0.386,-0.106Z" style="fill-rule:nonzero;"/>
                </g>
            </g>
        </g>
    </g>
</svg>
