<?xml version="1.0" encoding="utf-8" standalone="no"?>
<!DOCTYPE svg PUBLIC "-//W3C//DTD SVG 1.1//EN"
  "http://www.w3.org/Graphics/SVG/1.1/DTD/svg11.dtd">
<svg xmlns:xlink="http://www.w3.org/1999/xlink" width="499.88375pt" height="440.841125pt" viewBox="0 0 499.88375 440.841125" xmlns="http://www.w3.org/2000/svg" version="1.1">
 <metadata>
  <rdf:RDF xmlns:dc="http://purl.org/dc/elements/1.1/" xmlns:cc="http://creativecommons.org/ns#" xmlns:rdf="http://www.w3.org/1999/02/22-rdf-syntax-ns#">
   <cc:Work>
    <dc:type rdf:resource="http://purl.org/dc/dcmitype/StillImage"/>
    <dc:date>2025-11-27T18:07:41.489403</dc:date>
    <dc:format>image/svg+xml</dc:format>
    <dc:creator>
     <cc:Agent>
      <dc:title>Matplotlib v3.10.1, https://matplotlib.org/</dc:title>
     </cc:Agent>
    </dc:creator>
   </cc:Work>
  </rdf:RDF>
 </metadata>
 <defs>
  <style type="text/css">*{stroke-linejoin: round; stroke-linecap: butt}</style>
 </defs>
 <g id="figure_1">
  <g id="patch_1">
   <path d="M 0 440.841125 
L 499.88375 440.841125 
L 499.88375 0 
L 0 0 
z
" style="fill: #ffffff"/>
  </g>
  <g id="axes_1">
   <g id="patch_2">
    <path d="M 58.47375 391.512063 
L 461.67375 391.512063 
L 461.67375 54.552062 
L 58.47375 54.552062 
z
" style="fill: #ffffff"/>
   </g>
   <g id="matplotlib.axis_1">
    <g id="xtick_1">
     <g id="line2d_1">
      <path d="M 125.67375 391.512063 
L 125.67375 54.552062 
" clip-path="url(#p8553897598)" style="fill: none; stroke-dasharray: 3.7,1.6; stroke-dashoffset: 0; stroke: #cccccc; stroke-opacity: 0.5"/>
     </g>
     <g id="text_1">
      <!-- Qiskit -->
      <g style="fill: #262626" transform="translate(109.281172 409.370344) scale(0.11 -0.11)">
       <defs>
        <path id="DejaVuSerif-51" d="M 2700 -91 
Q 1628 -91 993 567 
Q 359 1225 359 2328 
Q 359 2894 529 3339 
Q 700 3784 1050 4134 
Q 1356 4441 1750 4595 
Q 2144 4750 2625 4750 
Q 3641 4750 4266 4084 
Q 4891 3419 4891 2328 
Q 4891 1403 4422 773 
Q 3953 144 3128 -38 
Q 3297 -247 3539 -347 
Q 3781 -447 4122 -447 
L 4219 -447 
L 4219 -1025 
Q 3691 -1000 3314 -767 
Q 2938 -534 2700 -91 
z
M 2625 244 
Q 3391 244 3781 770 
Q 4172 1297 4172 2328 
Q 4172 3363 3781 3889 
Q 3391 4416 2625 4416 
Q 1856 4416 1465 3889 
Q 1075 3363 1075 2328 
Q 1075 1297 1465 770 
Q 1856 244 2625 244 
z
" transform="scale(0.015625)"/>
        <path id="DejaVuSerif-69" d="M 622 4353 
Q 622 4497 726 4603 
Q 831 4709 978 4709 
Q 1122 4709 1226 4603 
Q 1331 4497 1331 4353 
Q 1331 4206 1228 4103 
Q 1125 4000 978 4000 
Q 831 4000 726 4103 
Q 622 4206 622 4353 
z
M 1356 331 
L 1900 331 
L 1900 0 
L 231 0 
L 231 331 
L 781 331 
L 781 2988 
L 231 2988 
L 231 3322 
L 1356 3322 
L 1356 331 
z
" transform="scale(0.015625)"/>
        <path id="DejaVuSerif-73" d="M 359 184 
L 359 959 
L 691 959 
Q 703 588 923 403 
Q 1144 219 1575 219 
Q 1963 219 2166 364 
Q 2369 509 2369 788 
Q 2369 1006 2220 1140 
Q 2072 1275 1594 1428 
L 1178 1569 
Q 750 1706 558 1912 
Q 366 2119 366 2438 
Q 366 2894 700 3153 
Q 1034 3413 1625 3413 
Q 1888 3413 2178 3344 
Q 2469 3275 2778 3144 
L 2778 2419 
L 2447 2419 
Q 2434 2741 2221 2922 
Q 2009 3103 1644 3103 
Q 1281 3103 1095 2975 
Q 909 2847 909 2591 
Q 909 2381 1050 2254 
Q 1191 2128 1613 1997 
L 2069 1856 
Q 2541 1709 2748 1489 
Q 2956 1269 2956 922 
Q 2956 450 2595 179 
Q 2234 -91 1600 -91 
Q 1278 -91 972 -22 
Q 666 47 359 184 
z
" transform="scale(0.015625)"/>
        <path id="DejaVuSerif-6b" d="M 1831 0 
L 219 0 
L 219 331 
L 738 331 
L 738 4531 
L 184 4531 
L 184 4863 
L 1313 4863 
L 1313 1697 
L 2713 2988 
L 2234 2988 
L 2234 3322 
L 3738 3322 
L 3738 2988 
L 3169 2988 
L 2181 2075 
L 3444 331 
L 3922 331 
L 3922 0 
L 2284 0 
L 2284 331 
L 2759 331 
L 1766 1697 
L 1313 1275 
L 1313 331 
L 1831 331 
L 1831 0 
z
" transform="scale(0.015625)"/>
        <path id="DejaVuSerif-74" d="M 691 2988 
L 184 2988 
L 184 3322 
L 691 3322 
L 691 4353 
L 1269 4353 
L 1269 3322 
L 2350 3322 
L 2350 2988 
L 1269 2988 
L 1269 878 
Q 1269 456 1350 337 
Q 1431 219 1650 219 
Q 1875 219 1978 351 
Q 2081 484 2088 781 
L 2522 781 
Q 2497 328 2275 118 
Q 2053 -91 1600 -91 
Q 1103 -91 897 129 
Q 691 350 691 878 
L 691 2988 
z
" transform="scale(0.015625)"/>
       </defs>
       <use xlink:href="#DejaVuSerif-51"/>
       <use xlink:href="#DejaVuSerif-69" transform="translate(81.982422 0)"/>
       <use xlink:href="#DejaVuSerif-73" transform="translate(113.964844 0)"/>
       <use xlink:href="#DejaVuSerif-6b" transform="translate(165.283203 0)"/>
       <use xlink:href="#DejaVuSerif-69" transform="translate(225.878906 0)"/>
       <use xlink:href="#DejaVuSerif-74" transform="translate(257.861328 0)"/>
      </g>
     </g>
    </g>
    <g id="xtick_2">
     <g id="line2d_2">
      <path d="M 260.07375 391.512063 
L 260.07375 54.552062 
" clip-path="url(#p8553897598)" style="fill: none; stroke-dasharray: 3.7,1.6; stroke-dashoffset: 0; stroke: #cccccc; stroke-opacity: 0.5"/>
     </g>
     <g id="text_2">
      <!-- Cirq -->
      <g style="fill: #262626" transform="translate(247.956562 409.370344) scale(0.11 -0.11)">
       <defs>
        <path id="DejaVuSerif-43" d="M 4513 1234 
Q 4306 581 3820 245 
Q 3334 -91 2591 -91 
Q 2134 -91 1743 65 
Q 1353 222 1050 525 
Q 700 875 529 1320 
Q 359 1766 359 2328 
Q 359 3416 987 4083 
Q 1616 4750 2644 4750 
Q 3025 4750 3456 4650 
Q 3888 4550 4384 4347 
L 4384 3272 
L 4031 3272 
Q 3916 3859 3567 4137 
Q 3219 4416 2591 4416 
Q 1844 4416 1459 3886 
Q 1075 3356 1075 2328 
Q 1075 1303 1459 773 
Q 1844 244 2591 244 
Q 3113 244 3450 492 
Q 3788 741 3938 1234 
L 4513 1234 
z
" transform="scale(0.015625)"/>
        <path id="DejaVuSerif-72" d="M 3059 3328 
L 3059 2497 
L 2728 2497 
Q 2713 2744 2591 2866 
Q 2469 2988 2234 2988 
Q 1809 2988 1582 2694 
Q 1356 2400 1356 1850 
L 1356 331 
L 2022 331 
L 2022 0 
L 263 0 
L 263 331 
L 781 331 
L 781 2994 
L 231 2994 
L 231 3322 
L 1356 3322 
L 1356 2731 
Q 1525 3078 1790 3245 
Q 2056 3413 2438 3413 
Q 2578 3413 2733 3391 
Q 2888 3369 3059 3328 
z
" transform="scale(0.015625)"/>
        <path id="DejaVuSerif-71" d="M 3359 2988 
L 3359 -997 
L 3909 -997 
L 3909 -1331 
L 2241 -1331 
L 2241 -997 
L 2784 -997 
L 2784 519 
Q 2616 206 2355 57 
Q 2094 -91 1709 -91 
Q 1097 -91 708 395 
Q 319 881 319 1663 
Q 319 2444 706 2928 
Q 1094 3413 1709 3413 
Q 2094 3413 2355 3264 
Q 2616 3116 2784 2803 
L 2784 3322 
L 3909 3322 
L 3909 2988 
L 3359 2988 
z
M 2784 1825 
Q 2784 2422 2554 2737 
Q 2325 3053 1888 3053 
Q 1444 3053 1217 2703 
Q 991 2353 991 1663 
Q 991 975 1217 622 
Q 1444 269 1888 269 
Q 2325 269 2554 583 
Q 2784 897 2784 1497 
L 2784 1825 
z
" transform="scale(0.015625)"/>
       </defs>
       <use xlink:href="#DejaVuSerif-43"/>
       <use xlink:href="#DejaVuSerif-69" transform="translate(76.513672 0)"/>
       <use xlink:href="#DejaVuSerif-72" transform="translate(108.496094 0)"/>
       <use xlink:href="#DejaVuSerif-71" transform="translate(156.298828 0)"/>
      </g>
     </g>
    </g>
    <g id="xtick_3">
     <g id="line2d_3">
      <path d="M 394.47375 391.512063 
L 394.47375 54.552062 
" clip-path="url(#p8553897598)" style="fill: none; stroke-dasharray: 3.7,1.6; stroke-dashoffset: 0; stroke: #cccccc; stroke-opacity: 0.5"/>
     </g>
     <g id="text_3">
      <!-- Tket -->
      <g style="fill: #262626" transform="translate(382.006797 409.370344) scale(0.11 -0.11)">
       <defs>
        <path id="DejaVuSerif-54" d="M 1222 0 
L 1222 331 
L 1819 331 
L 1819 4294 
L 447 4294 
L 447 3566 
L 63 3566 
L 63 4666 
L 4206 4666 
L 4206 3566 
L 3822 3566 
L 3822 4294 
L 2450 4294 
L 2450 331 
L 3047 331 
L 3047 0 
L 1222 0 
z
" transform="scale(0.015625)"/>
        <path id="DejaVuSerif-65" d="M 3469 1600 
L 991 1600 
L 991 1575 
Q 991 903 1244 561 
Q 1497 219 1991 219 
Q 2369 219 2611 417 
Q 2853 616 2950 1006 
L 3413 1006 
Q 3275 459 2904 184 
Q 2534 -91 1931 -91 
Q 1203 -91 761 389 
Q 319 869 319 1663 
Q 319 2450 753 2931 
Q 1188 3413 1894 3413 
Q 2647 3413 3050 2948 
Q 3453 2484 3469 1600 
z
M 2791 1931 
Q 2772 2513 2545 2808 
Q 2319 3103 1894 3103 
Q 1497 3103 1269 2806 
Q 1041 2509 991 1931 
L 2791 1931 
z
" transform="scale(0.015625)"/>
       </defs>
       <use xlink:href="#DejaVuSerif-54"/>
       <use xlink:href="#DejaVuSerif-6b" transform="translate(66.699219 0)"/>
       <use xlink:href="#DejaVuSerif-65" transform="translate(127.294922 0)"/>
       <use xlink:href="#DejaVuSerif-74" transform="translate(186.474609 0)"/>
      </g>
     </g>
    </g>
    <g id="text_4">
     <!-- Framework (najmniejszy śr. czas transpilacji) -->
     <g style="fill: #262626" transform="translate(122.280937 430.974875) scale(0.12 -0.12)">
      <defs>
       <path id="DejaVuSerif-46" d="M 353 0 
L 353 331 
L 947 331 
L 947 4331 
L 353 4331 
L 353 4666 
L 4172 4666 
L 4172 3628 
L 3788 3628 
L 3788 4281 
L 1581 4281 
L 1581 2719 
L 3175 2719 
L 3175 3303 
L 3559 3303 
L 3559 1753 
L 3175 1753 
L 3175 2338 
L 1581 2338 
L 1581 331 
L 2328 331 
L 2328 0 
L 353 0 
z
" transform="scale(0.015625)"/>
       <path id="DejaVuSerif-61" d="M 2547 1044 
L 2547 1747 
L 1806 1747 
Q 1378 1747 1168 1562 
Q 959 1378 959 997 
Q 959 650 1171 447 
Q 1384 244 1747 244 
Q 2106 244 2326 466 
Q 2547 688 2547 1044 
z
M 3122 2075 
L 3122 331 
L 3634 331 
L 3634 0 
L 2547 0 
L 2547 359 
Q 2356 128 2106 18 
Q 1856 -91 1522 -91 
Q 969 -91 644 203 
Q 319 497 319 997 
Q 319 1513 691 1797 
Q 1063 2081 1741 2081 
L 2547 2081 
L 2547 2309 
Q 2547 2688 2317 2895 
Q 2088 3103 1672 3103 
Q 1328 3103 1125 2947 
Q 922 2791 872 2484 
L 575 2484 
L 575 3156 
Q 875 3284 1158 3348 
Q 1441 3413 1709 3413 
Q 2400 3413 2761 3070 
Q 3122 2728 3122 2075 
z
" transform="scale(0.015625)"/>
       <path id="DejaVuSerif-6d" d="M 3316 2675 
Q 3481 3041 3739 3227 
Q 3997 3413 4341 3413 
Q 4863 3413 5119 3089 
Q 5375 2766 5375 2113 
L 5375 331 
L 5894 331 
L 5894 0 
L 4300 0 
L 4300 331 
L 4800 331 
L 4800 2047 
Q 4800 2556 4650 2772 
Q 4500 2988 4153 2988 
Q 3769 2988 3567 2697 
Q 3366 2406 3366 1850 
L 3366 331 
L 3866 331 
L 3866 0 
L 2291 0 
L 2291 331 
L 2791 331 
L 2791 2069 
Q 2791 2566 2641 2777 
Q 2491 2988 2144 2988 
Q 1759 2988 1557 2697 
Q 1356 2406 1356 1850 
L 1356 331 
L 1856 331 
L 1856 0 
L 263 0 
L 263 331 
L 781 331 
L 781 2994 
L 231 2994 
L 231 3322 
L 1356 3322 
L 1356 2731 
Q 1516 3063 1762 3238 
Q 2009 3413 2322 3413 
Q 2709 3413 2968 3220 
Q 3228 3028 3316 2675 
z
" transform="scale(0.015625)"/>
       <path id="DejaVuSerif-77" d="M 3072 3322 
L 3922 728 
L 4672 2988 
L 4191 2988 
L 4191 3322 
L 5394 3322 
L 5394 2988 
L 5025 2988 
L 4038 0 
L 3559 0 
L 2741 2484 
L 1919 0 
L 1459 0 
L 475 2988 
L 103 2988 
L 103 3322 
L 1606 3322 
L 1606 2988 
L 1069 2988 
L 1813 728 
L 2669 3322 
L 3072 3322 
z
" transform="scale(0.015625)"/>
       <path id="DejaVuSerif-6f" d="M 1925 219 
Q 2388 219 2623 584 
Q 2859 950 2859 1663 
Q 2859 2375 2623 2739 
Q 2388 3103 1925 3103 
Q 1463 3103 1227 2739 
Q 991 2375 991 1663 
Q 991 950 1228 584 
Q 1466 219 1925 219 
z
M 1925 -91 
Q 1200 -91 759 389 
Q 319 869 319 1663 
Q 319 2456 758 2934 
Q 1197 3413 1925 3413 
Q 2653 3413 3092 2934 
Q 3531 2456 3531 1663 
Q 3531 869 3092 389 
Q 2653 -91 1925 -91 
z
" transform="scale(0.015625)"/>
       <path id="DejaVuSerif-20" transform="scale(0.015625)"/>
       <path id="DejaVuSerif-28" d="M 2041 -997 
Q 1281 -656 893 83 
Q 506 822 506 1931 
Q 506 3044 893 3783 
Q 1281 4522 2041 4863 
L 2041 4556 
Q 1559 4225 1350 3623 
Q 1141 3022 1141 1931 
Q 1141 844 1350 242 
Q 1559 -359 2041 -691 
L 2041 -997 
z
" transform="scale(0.015625)"/>
       <path id="DejaVuSerif-6e" d="M 263 0 
L 263 331 
L 781 331 
L 781 2988 
L 231 2988 
L 231 3322 
L 1356 3322 
L 1356 2731 
Q 1516 3069 1770 3241 
Q 2025 3413 2363 3413 
Q 2913 3413 3172 3097 
Q 3431 2781 3431 2113 
L 3431 331 
L 3944 331 
L 3944 0 
L 2356 0 
L 2356 331 
L 2853 331 
L 2853 1931 
Q 2853 2541 2703 2767 
Q 2553 2994 2175 2994 
Q 1775 2994 1565 2701 
Q 1356 2409 1356 1850 
L 1356 331 
L 1856 331 
L 1856 0 
L 263 0 
z
" transform="scale(0.015625)"/>
       <path id="DejaVuSerif-6a" d="M 641 4353 
Q 641 4497 745 4603 
Q 850 4709 997 4709 
Q 1141 4709 1245 4603 
Q 1350 4497 1350 4353 
Q 1350 4206 1248 4103 
Q 1147 4000 997 4000 
Q 850 4000 745 4103 
Q 641 4206 641 4353 
z
M 781 2988 
L 238 2988 
L 238 3322 
L 1356 3322 
L 1356 -325 
Q 1356 -838 1051 -1130 
Q 747 -1422 213 -1422 
Q -13 -1422 -217 -1370 
Q -422 -1319 -616 -1216 
L -616 -531 
L -319 -531 
Q -297 -831 -164 -972 
Q -31 -1113 225 -1113 
Q 509 -1113 645 -920 
Q 781 -728 781 -325 
L 781 2988 
z
" transform="scale(0.015625)"/>
       <path id="DejaVuSerif-7a" d="M 256 0 
L 256 269 
L 2338 2988 
L 691 2988 
L 691 2413 
L 359 2413 
L 359 3322 
L 3078 3322 
L 3078 3053 
L 997 331 
L 2803 331 
L 2803 934 
L 3138 934 
L 3138 0 
L 256 0 
z
" transform="scale(0.015625)"/>
       <path id="DejaVuSerif-79" d="M 1381 -609 
L 1600 -56 
L 359 2988 
L -19 2988 
L -19 3322 
L 1509 3322 
L 1509 2988 
L 978 2988 
L 1913 703 
L 2847 2988 
L 2350 2988 
L 2350 3322 
L 3597 3322 
L 3597 2988 
L 3225 2988 
L 1703 -750 
Q 1547 -1138 1356 -1280 
Q 1166 -1422 819 -1422 
Q 672 -1422 517 -1397 
Q 363 -1372 206 -1325 
L 206 -691 
L 500 -691 
Q 519 -903 608 -995 
Q 697 -1088 884 -1088 
Q 1056 -1088 1161 -992 
Q 1266 -897 1381 -609 
z
" transform="scale(0.015625)"/>
       <path id="DejaVuSerif-15b" d="M 2269 4969 
L 2891 4969 
L 1828 3794 
L 1463 3794 
L 2269 4969 
z
M 359 184 
L 359 959 
L 691 959 
Q 703 588 923 403 
Q 1144 219 1575 219 
Q 1963 219 2166 364 
Q 2369 509 2369 788 
Q 2369 1006 2220 1140 
Q 2072 1275 1594 1428 
L 1178 1569 
Q 750 1706 558 1912 
Q 366 2119 366 2438 
Q 366 2894 700 3153 
Q 1034 3413 1625 3413 
Q 1888 3413 2178 3344 
Q 2469 3275 2778 3144 
L 2778 2419 
L 2447 2419 
Q 2434 2741 2221 2922 
Q 2009 3103 1644 3103 
Q 1281 3103 1095 2975 
Q 909 2847 909 2591 
Q 909 2381 1050 2254 
Q 1191 2128 1613 1997 
L 2069 1856 
Q 2541 1709 2748 1489 
Q 2956 1269 2956 922 
Q 2956 450 2595 179 
Q 2234 -91 1600 -91 
Q 1278 -91 972 -22 
Q 666 47 359 184 
z
" transform="scale(0.015625)"/>
       <path id="DejaVuSerif-2e" d="M 603 325 
Q 603 500 722 622 
Q 841 744 1019 744 
Q 1191 744 1312 622 
Q 1434 500 1434 325 
Q 1434 153 1312 31 
Q 1191 -91 1019 -91 
Q 841 -91 722 29 
Q 603 150 603 325 
z
" transform="scale(0.015625)"/>
       <path id="DejaVuSerif-63" d="M 3291 997 
Q 3169 466 2822 187 
Q 2475 -91 1925 -91 
Q 1200 -91 759 389 
Q 319 869 319 1663 
Q 319 2459 759 2936 
Q 1200 3413 1925 3413 
Q 2241 3413 2553 3339 
Q 2866 3266 3181 3116 
L 3181 2266 
L 2847 2266 
Q 2781 2703 2561 2903 
Q 2341 3103 1931 3103 
Q 1466 3103 1228 2742 
Q 991 2381 991 1663 
Q 991 944 1227 581 
Q 1463 219 1931 219 
Q 2303 219 2525 412 
Q 2747 606 2828 997 
L 3291 997 
z
" transform="scale(0.015625)"/>
       <path id="DejaVuSerif-70" d="M 1313 1825 
L 1313 1497 
Q 1313 897 1542 583 
Q 1772 269 2209 269 
Q 2650 269 2876 622 
Q 3103 975 3103 1663 
Q 3103 2353 2876 2703 
Q 2650 3053 2209 3053 
Q 1772 3053 1542 2737 
Q 1313 2422 1313 1825 
z
M 738 2988 
L 184 2988 
L 184 3322 
L 1313 3322 
L 1313 2803 
Q 1481 3116 1742 3264 
Q 2003 3413 2388 3413 
Q 3000 3413 3387 2928 
Q 3775 2444 3775 1663 
Q 3775 881 3387 395 
Q 3000 -91 2388 -91 
Q 2003 -91 1742 57 
Q 1481 206 1313 519 
L 1313 -997 
L 1856 -997 
L 1856 -1331 
L 184 -1331 
L 184 -997 
L 738 -997 
L 738 2988 
z
" transform="scale(0.015625)"/>
       <path id="DejaVuSerif-6c" d="M 1313 331 
L 1856 331 
L 1856 0 
L 184 0 
L 184 331 
L 738 331 
L 738 4531 
L 184 4531 
L 184 4863 
L 1313 4863 
L 1313 331 
z
" transform="scale(0.015625)"/>
       <path id="DejaVuSerif-29" d="M 453 -997 
L 453 -691 
Q 934 -359 1145 242 
Q 1356 844 1356 1931 
Q 1356 3022 1145 3623 
Q 934 4225 453 4556 
L 453 4863 
Q 1216 4522 1603 3783 
Q 1991 3044 1991 1931 
Q 1991 822 1603 83 
Q 1216 -656 453 -997 
z
" transform="scale(0.015625)"/>
      </defs>
      <use xlink:href="#DejaVuSerif-46"/>
      <use xlink:href="#DejaVuSerif-72" transform="translate(69.384766 0)"/>
      <use xlink:href="#DejaVuSerif-61" transform="translate(117.1875 0)"/>
      <use xlink:href="#DejaVuSerif-6d" transform="translate(176.806641 0)"/>
      <use xlink:href="#DejaVuSerif-65" transform="translate(271.630859 0)"/>
      <use xlink:href="#DejaVuSerif-77" transform="translate(330.810547 0)"/>
      <use xlink:href="#DejaVuSerif-6f" transform="translate(416.40625 0)"/>
      <use xlink:href="#DejaVuSerif-72" transform="translate(476.611328 0)"/>
      <use xlink:href="#DejaVuSerif-6b" transform="translate(524.414062 0)"/>
      <use xlink:href="#DejaVuSerif-20" transform="translate(585.009766 0)"/>
      <use xlink:href="#DejaVuSerif-28" transform="translate(616.796875 0)"/>
      <use xlink:href="#DejaVuSerif-6e" transform="translate(655.810547 0)"/>
      <use xlink:href="#DejaVuSerif-61" transform="translate(720.214844 0)"/>
      <use xlink:href="#DejaVuSerif-6a" transform="translate(779.833984 0)"/>
      <use xlink:href="#DejaVuSerif-6d" transform="translate(810.839844 0)"/>
      <use xlink:href="#DejaVuSerif-6e" transform="translate(905.664062 0)"/>
      <use xlink:href="#DejaVuSerif-69" transform="translate(970.068359 0)"/>
      <use xlink:href="#DejaVuSerif-65" transform="translate(1002.050781 0)"/>
      <use xlink:href="#DejaVuSerif-6a" transform="translate(1061.230469 0)"/>
      <use xlink:href="#DejaVuSerif-73" transform="translate(1092.236328 0)"/>
      <use xlink:href="#DejaVuSerif-7a" transform="translate(1143.554688 0)"/>
      <use xlink:href="#DejaVuSerif-79" transform="translate(1196.240234 0)"/>
      <use xlink:href="#DejaVuSerif-20" transform="translate(1252.734375 0)"/>
      <use xlink:href="#DejaVuSerif-15b" transform="translate(1284.521484 0)"/>
      <use xlink:href="#DejaVuSerif-72" transform="translate(1335.839844 0)"/>
      <use xlink:href="#DejaVuSerif-2e" transform="translate(1372.642578 0)"/>
      <use xlink:href="#DejaVuSerif-20" transform="translate(1404.429688 0)"/>
      <use xlink:href="#DejaVuSerif-63" transform="translate(1436.216797 0)"/>
      <use xlink:href="#DejaVuSerif-7a" transform="translate(1492.222656 0)"/>
      <use xlink:href="#DejaVuSerif-61" transform="translate(1544.908203 0)"/>
      <use xlink:href="#DejaVuSerif-73" transform="translate(1604.527344 0)"/>
      <use xlink:href="#DejaVuSerif-20" transform="translate(1655.845703 0)"/>
      <use xlink:href="#DejaVuSerif-74" transform="translate(1687.632812 0)"/>
      <use xlink:href="#DejaVuSerif-72" transform="translate(1727.818359 0)"/>
      <use xlink:href="#DejaVuSerif-61" transform="translate(1775.621094 0)"/>
      <use xlink:href="#DejaVuSerif-6e" transform="translate(1835.240234 0)"/>
      <use xlink:href="#DejaVuSerif-73" transform="translate(1899.644531 0)"/>
      <use xlink:href="#DejaVuSerif-70" transform="translate(1950.962891 0)"/>
      <use xlink:href="#DejaVuSerif-69" transform="translate(2014.976562 0)"/>
      <use xlink:href="#DejaVuSerif-6c" transform="translate(2046.958984 0)"/>
      <use xlink:href="#DejaVuSerif-61" transform="translate(2078.941406 0)"/>
      <use xlink:href="#DejaVuSerif-63" transform="translate(2138.560547 0)"/>
      <use xlink:href="#DejaVuSerif-6a" transform="translate(2194.566406 0)"/>
      <use xlink:href="#DejaVuSerif-69" transform="translate(2225.572266 0)"/>
      <use xlink:href="#DejaVuSerif-29" transform="translate(2257.554688 0)"/>
     </g>
    </g>
   </g>
   <g id="matplotlib.axis_2">
    <g id="ytick_1">
     <g id="line2d_4">
      <path d="M 58.47375 96.672062 
L 461.67375 96.672062 
" clip-path="url(#p8553897598)" style="fill: none; stroke-dasharray: 3.7,1.6; stroke-dashoffset: 0; stroke: #cccccc; stroke-opacity: 0.5"/>
     </g>
     <g id="text_5">
      <!-- Stany GHZ -->
      <g style="fill: #262626" transform="translate(49.111625 127.338859) rotate(-90) scale(0.11 -0.11)">
       <defs>
        <path id="DejaVuSerif-53" d="M 594 225 
L 594 1288 
L 953 1284 
Q 969 753 1261 498 
Q 1553 244 2150 244 
Q 2706 244 2998 464 
Q 3291 684 3291 1106 
Q 3291 1444 3114 1625 
Q 2938 1806 2369 1978 
L 1753 2163 
Q 1084 2366 811 2669 
Q 538 2972 538 3500 
Q 538 4094 959 4422 
Q 1381 4750 2144 4750 
Q 2469 4750 2856 4679 
Q 3244 4609 3681 4475 
L 3681 3481 
L 3328 3481 
Q 3275 3975 2998 4195 
Q 2722 4416 2156 4416 
Q 1663 4416 1405 4214 
Q 1147 4013 1147 3628 
Q 1147 3294 1340 3103 
Q 1534 2913 2163 2725 
L 2741 2553 
Q 3375 2363 3645 2067 
Q 3916 1772 3916 1275 
Q 3916 597 3481 253 
Q 3047 -91 2188 -91 
Q 1803 -91 1404 -12 
Q 1006 66 594 225 
z
" transform="scale(0.015625)"/>
        <path id="DejaVuSerif-47" d="M 4097 3272 
Q 3988 3856 3641 4136 
Q 3294 4416 2675 4416 
Q 1869 4416 1472 3897 
Q 1075 3378 1075 2328 
Q 1075 1300 1484 772 
Q 1894 244 2688 244 
Q 3041 244 3362 331 
Q 3684 419 3975 594 
L 3975 1797 
L 3097 1797 
L 3097 2131 
L 4609 2131 
L 4609 391 
Q 4194 150 3714 29 
Q 3234 -91 2688 -91 
Q 1631 -91 995 570 
Q 359 1231 359 2328 
Q 359 3434 996 4092 
Q 1634 4750 2713 4750 
Q 3113 4750 3539 4658 
Q 3966 4566 4447 4378 
L 4447 3272 
L 4097 3272 
z
" transform="scale(0.015625)"/>
        <path id="DejaVuSerif-48" d="M 353 0 
L 353 331 
L 947 331 
L 947 4331 
L 353 4331 
L 353 4666 
L 2175 4666 
L 2175 4331 
L 1581 4331 
L 1581 2719 
L 4000 2719 
L 4000 4331 
L 3406 4331 
L 3406 4666 
L 5228 4666 
L 5228 4331 
L 4634 4331 
L 4634 331 
L 5228 331 
L 5228 0 
L 3406 0 
L 3406 331 
L 4000 331 
L 4000 2338 
L 1581 2338 
L 1581 331 
L 2175 331 
L 2175 0 
L 353 0 
z
" transform="scale(0.015625)"/>
        <path id="DejaVuSerif-5a" d="M 288 0 
L 288 225 
L 3194 4281 
L 781 4281 
L 781 3584 
L 397 3584 
L 397 4666 
L 4084 4666 
L 4084 4441 
L 1178 384 
L 3816 384 
L 3816 1038 
L 4197 1038 
L 4197 0 
L 288 0 
z
" transform="scale(0.015625)"/>
       </defs>
       <use xlink:href="#DejaVuSerif-53"/>
       <use xlink:href="#DejaVuSerif-74" transform="translate(68.505859 0)"/>
       <use xlink:href="#DejaVuSerif-61" transform="translate(108.691406 0)"/>
       <use xlink:href="#DejaVuSerif-6e" transform="translate(168.310547 0)"/>
       <use xlink:href="#DejaVuSerif-79" transform="translate(232.714844 0)"/>
       <use xlink:href="#DejaVuSerif-20" transform="translate(289.208984 0)"/>
       <use xlink:href="#DejaVuSerif-47" transform="translate(320.996094 0)"/>
       <use xlink:href="#DejaVuSerif-48" transform="translate(400.878906 0)"/>
       <use xlink:href="#DejaVuSerif-5a" transform="translate(488.085938 0)"/>
      </g>
     </g>
    </g>
    <g id="ytick_2">
     <g id="line2d_5">
      <path d="M 58.47375 180.912062 
L 461.67375 180.912062 
" clip-path="url(#p8553897598)" style="fill: none; stroke-dasharray: 3.7,1.6; stroke-dashoffset: 0; stroke: #cccccc; stroke-opacity: 0.5"/>
     </g>
     <g id="text_6">
      <!-- Symulacja -->
      <g style="fill: #262626" transform="translate(37.172031 217.654641) rotate(-90) scale(0.11 -0.11)">
       <defs>
        <path id="DejaVuSerif-75" d="M 2266 3322 
L 3341 3322 
L 3341 331 
L 3884 331 
L 3884 0 
L 2766 0 
L 2766 588 
Q 2606 256 2353 82 
Q 2100 -91 1766 -91 
Q 1213 -91 952 223 
Q 691 538 691 1209 
L 691 2988 
L 172 2988 
L 172 3322 
L 1269 3322 
L 1269 1388 
Q 1269 781 1417 556 
Q 1566 331 1947 331 
Q 2347 331 2556 625 
Q 2766 919 2766 1478 
L 2766 2988 
L 2266 2988 
L 2266 3322 
z
" transform="scale(0.015625)"/>
       </defs>
       <use xlink:href="#DejaVuSerif-53"/>
       <use xlink:href="#DejaVuSerif-79" transform="translate(68.505859 0)"/>
       <use xlink:href="#DejaVuSerif-6d" transform="translate(125 0)"/>
       <use xlink:href="#DejaVuSerif-75" transform="translate(219.824219 0)"/>
       <use xlink:href="#DejaVuSerif-6c" transform="translate(284.228516 0)"/>
       <use xlink:href="#DejaVuSerif-61" transform="translate(316.210938 0)"/>
       <use xlink:href="#DejaVuSerif-63" transform="translate(375.830078 0)"/>
       <use xlink:href="#DejaVuSerif-6a" transform="translate(431.835938 0)"/>
       <use xlink:href="#DejaVuSerif-61" transform="translate(462.841797 0)"/>
      </g>
      <!-- hamiltonianu -->
      <g style="fill: #262626" transform="translate(49.646031 217.654641) rotate(-90) scale(0.11 -0.11)">
       <defs>
        <path id="DejaVuSerif-68" d="M 263 0 
L 263 331 
L 781 331 
L 781 4531 
L 231 4531 
L 231 4863 
L 1356 4863 
L 1356 2731 
Q 1516 3069 1770 3241 
Q 2025 3413 2363 3413 
Q 2913 3413 3172 3097 
Q 3431 2781 3431 2113 
L 3431 331 
L 3944 331 
L 3944 0 
L 2356 0 
L 2356 331 
L 2853 331 
L 2853 1931 
Q 2853 2541 2704 2764 
Q 2556 2988 2175 2988 
Q 1775 2988 1565 2697 
Q 1356 2406 1356 1850 
L 1356 331 
L 1856 331 
L 1856 0 
L 263 0 
z
" transform="scale(0.015625)"/>
       </defs>
       <use xlink:href="#DejaVuSerif-68"/>
       <use xlink:href="#DejaVuSerif-61" transform="translate(64.404297 0)"/>
       <use xlink:href="#DejaVuSerif-6d" transform="translate(124.023438 0)"/>
       <use xlink:href="#DejaVuSerif-69" transform="translate(218.847656 0)"/>
       <use xlink:href="#DejaVuSerif-6c" transform="translate(250.830078 0)"/>
       <use xlink:href="#DejaVuSerif-74" transform="translate(282.8125 0)"/>
       <use xlink:href="#DejaVuSerif-6f" transform="translate(322.998047 0)"/>
       <use xlink:href="#DejaVuSerif-6e" transform="translate(383.203125 0)"/>
       <use xlink:href="#DejaVuSerif-69" transform="translate(447.607422 0)"/>
       <use xlink:href="#DejaVuSerif-61" transform="translate(479.589844 0)"/>
       <use xlink:href="#DejaVuSerif-6e" transform="translate(539.208984 0)"/>
       <use xlink:href="#DejaVuSerif-75" transform="translate(603.613281 0)"/>
      </g>
     </g>
    </g>
    <g id="ytick_3">
     <g id="line2d_6">
      <path d="M 58.47375 265.152062 
L 461.67375 265.152062 
" clip-path="url(#p8553897598)" style="fill: none; stroke-dasharray: 3.7,1.6; stroke-dashoffset: 0; stroke: #cccccc; stroke-opacity: 0.5"/>
     </g>
     <g id="text_7">
      <!-- Nierówności -->
      <g style="fill: #262626" transform="translate(37.172031 306.417531) rotate(-90) scale(0.11 -0.11)">
       <defs>
        <path id="DejaVuSerif-4e" d="M 313 0 
L 313 331 
L 941 331 
L 941 4331 
L 313 4331 
L 313 4666 
L 1509 4666 
L 4306 984 
L 4306 4331 
L 3681 4331 
L 3681 4666 
L 5319 4666 
L 5319 4331 
L 4691 4331 
L 4691 -91 
L 4313 -91 
L 1325 3841 
L 1325 331 
L 1953 331 
L 1953 0 
L 313 0 
z
" transform="scale(0.015625)"/>
        <path id="DejaVuSerif-f3" d="M 1925 219 
Q 2388 219 2623 584 
Q 2859 950 2859 1663 
Q 2859 2375 2623 2739 
Q 2388 3103 1925 3103 
Q 1463 3103 1227 2739 
Q 991 2375 991 1663 
Q 991 950 1228 584 
Q 1466 219 1925 219 
z
M 1925 -91 
Q 1200 -91 759 389 
Q 319 869 319 1663 
Q 319 2456 758 2934 
Q 1197 3413 1925 3413 
Q 2653 3413 3092 2934 
Q 3531 2456 3531 1663 
Q 3531 869 3092 389 
Q 2653 -91 1925 -91 
z
M 2359 5119 
L 2981 5119 
L 1919 3944 
L 1553 3944 
L 2359 5119 
z
" transform="scale(0.015625)"/>
       </defs>
       <use xlink:href="#DejaVuSerif-4e"/>
       <use xlink:href="#DejaVuSerif-69" transform="translate(87.5 0)"/>
       <use xlink:href="#DejaVuSerif-65" transform="translate(119.482422 0)"/>
       <use xlink:href="#DejaVuSerif-72" transform="translate(178.662109 0)"/>
       <use xlink:href="#DejaVuSerif-f3" transform="translate(226.464844 0)"/>
       <use xlink:href="#DejaVuSerif-77" transform="translate(286.669922 0)"/>
       <use xlink:href="#DejaVuSerif-6e" transform="translate(372.265625 0)"/>
       <use xlink:href="#DejaVuSerif-6f" transform="translate(436.669922 0)"/>
       <use xlink:href="#DejaVuSerif-15b" transform="translate(496.875 0)"/>
       <use xlink:href="#DejaVuSerif-63" transform="translate(548.193359 0)"/>
       <use xlink:href="#DejaVuSerif-69" transform="translate(604.199219 0)"/>
      </g>
      <!-- Mermina-Bella -->
      <g style="fill: #262626" transform="translate(49.489625 306.417531) rotate(-90) scale(0.11 -0.11)">
       <defs>
        <path id="DejaVuSerif-4d" d="M 353 0 
L 353 331 
L 947 331 
L 947 4331 
L 319 4331 
L 319 4666 
L 1678 4666 
L 3316 1344 
L 4953 4666 
L 6228 4666 
L 6228 4331 
L 5606 4331 
L 5606 331 
L 6203 331 
L 6203 0 
L 4378 0 
L 4378 331 
L 4972 331 
L 4972 3938 
L 3372 684 
L 2931 684 
L 1331 3938 
L 1331 331 
L 1925 331 
L 1925 0 
L 353 0 
z
" transform="scale(0.015625)"/>
        <path id="DejaVuSerif-2d" d="M 281 1959 
L 1881 1959 
L 1881 1472 
L 281 1472 
L 281 1959 
z
" transform="scale(0.015625)"/>
        <path id="DejaVuSerif-42" d="M 1581 331 
L 2516 331 
Q 3078 331 3337 575 
Q 3597 819 3597 1350 
Q 3597 1878 3339 2120 
Q 3081 2363 2516 2363 
L 1581 2363 
L 1581 331 
z
M 1581 2694 
L 2375 2694 
Q 2888 2694 3123 2891 
Q 3359 3088 3359 3513 
Q 3359 3941 3123 4136 
Q 2888 4331 2375 4331 
L 1581 4331 
L 1581 2694 
z
M 353 0 
L 353 331 
L 947 331 
L 947 4331 
L 353 4331 
L 353 4666 
L 2656 4666 
Q 3363 4666 3720 4377 
Q 4078 4088 4078 3513 
Q 4078 3097 3829 2850 
Q 3581 2603 3103 2547 
Q 3697 2472 4005 2167 
Q 4313 1863 4313 1350 
Q 4313 656 3875 328 
Q 3438 0 2509 0 
L 353 0 
z
" transform="scale(0.015625)"/>
       </defs>
       <use xlink:href="#DejaVuSerif-4d"/>
       <use xlink:href="#DejaVuSerif-65" transform="translate(102.392578 0)"/>
       <use xlink:href="#DejaVuSerif-72" transform="translate(161.572266 0)"/>
       <use xlink:href="#DejaVuSerif-6d" transform="translate(209.375 0)"/>
       <use xlink:href="#DejaVuSerif-69" transform="translate(304.199219 0)"/>
       <use xlink:href="#DejaVuSerif-6e" transform="translate(336.181641 0)"/>
       <use xlink:href="#DejaVuSerif-61" transform="translate(400.585938 0)"/>
       <use xlink:href="#DejaVuSerif-2d" transform="translate(460.205078 0)"/>
       <use xlink:href="#DejaVuSerif-42" transform="translate(493.994141 0)"/>
       <use xlink:href="#DejaVuSerif-65" transform="translate(567.480469 0)"/>
       <use xlink:href="#DejaVuSerif-6c" transform="translate(626.660156 0)"/>
       <use xlink:href="#DejaVuSerif-6c" transform="translate(658.642578 0)"/>
       <use xlink:href="#DejaVuSerif-61" transform="translate(690.625 0)"/>
      </g>
     </g>
    </g>
    <g id="ytick_4">
     <g id="line2d_7">
      <path d="M 58.47375 349.392063 
L 461.67375 349.392063 
" clip-path="url(#p8553897598)" style="fill: none; stroke-dasharray: 3.7,1.6; stroke-dashoffset: 0; stroke: #cccccc; stroke-opacity: 0.5"/>
     </g>
     <g id="text_8">
      <!-- QAOA -->
      <g style="fill: #262626" transform="translate(49.268031 366.354406) rotate(-90) scale(0.11 -0.11)">
       <defs>
        <path id="DejaVuSerif-41" d="M 1281 1691 
L 2994 1691 
L 2138 3909 
L 1281 1691 
z
M -38 0 
L -38 331 
L 372 331 
L 2034 4666 
L 2559 4666 
L 4225 331 
L 4684 331 
L 4684 0 
L 2988 0 
L 2988 331 
L 3506 331 
L 3116 1356 
L 1153 1356 
L 763 331 
L 1275 331 
L 1275 0 
L -38 0 
z
" transform="scale(0.015625)"/>
        <path id="DejaVuSerif-4f" d="M 2625 244 
Q 3391 244 3781 770 
Q 4172 1297 4172 2328 
Q 4172 3363 3781 3889 
Q 3391 4416 2625 4416 
Q 1856 4416 1465 3889 
Q 1075 3363 1075 2328 
Q 1075 1297 1465 770 
Q 1856 244 2625 244 
z
M 2625 -91 
Q 2150 -91 1751 65 
Q 1353 222 1050 525 
Q 700 875 529 1319 
Q 359 1763 359 2328 
Q 359 2894 529 3339 
Q 700 3784 1050 4134 
Q 1356 4441 1750 4595 
Q 2144 4750 2625 4750 
Q 3641 4750 4266 4084 
Q 4891 3419 4891 2328 
Q 4891 1769 4719 1320 
Q 4547 872 4197 525 
Q 3891 219 3497 64 
Q 3103 -91 2625 -91 
z
" transform="scale(0.015625)"/>
       </defs>
       <use xlink:href="#DejaVuSerif-51"/>
       <use xlink:href="#DejaVuSerif-41" transform="translate(81.982422 0)"/>
       <use xlink:href="#DejaVuSerif-4f" transform="translate(154.199219 0)"/>
       <use xlink:href="#DejaVuSerif-41" transform="translate(236.181641 0)"/>
      </g>
     </g>
    </g>
    <g id="text_9">
     <!-- Typ instancji -->
     <g style="fill: #262626" transform="translate(16.1475 262.026437) rotate(-90) scale(0.12 -0.12)">
      <use xlink:href="#DejaVuSerif-54"/>
      <use xlink:href="#DejaVuSerif-79" transform="translate(66.699219 0)"/>
      <use xlink:href="#DejaVuSerif-70" transform="translate(123.193359 0)"/>
      <use xlink:href="#DejaVuSerif-20" transform="translate(187.207031 0)"/>
      <use xlink:href="#DejaVuSerif-69" transform="translate(218.994141 0)"/>
      <use xlink:href="#DejaVuSerif-6e" transform="translate(250.976562 0)"/>
      <use xlink:href="#DejaVuSerif-73" transform="translate(315.380859 0)"/>
      <use xlink:href="#DejaVuSerif-74" transform="translate(366.699219 0)"/>
      <use xlink:href="#DejaVuSerif-61" transform="translate(406.884766 0)"/>
      <use xlink:href="#DejaVuSerif-6e" transform="translate(466.503906 0)"/>
      <use xlink:href="#DejaVuSerif-63" transform="translate(530.908203 0)"/>
      <use xlink:href="#DejaVuSerif-6a" transform="translate(586.914062 0)"/>
      <use xlink:href="#DejaVuSerif-69" transform="translate(617.919922 0)"/>
     </g>
    </g>
   </g>
   <g id="QuadMesh_1">
    <path d="M 58.47375 54.552062 
L 192.87375 54.552062 
L 192.87375 138.792062 
L 58.47375 138.792062 
L 58.47375 54.552062 
" clip-path="url(#p8553897598)" style="fill: #a4a4a4; stroke: #d3d3d3; stroke-width: 0.5"/>
    <path d="M 192.87375 54.552062 
L 327.27375 54.552062 
L 327.27375 138.792062 
L 192.87375 138.792062 
L 192.87375 54.552062 
" clip-path="url(#p8553897598)" style="fill: #1b1b1b; stroke: #d3d3d3; stroke-width: 0.5"/>
    <path d="M 327.27375 54.552062 
L 461.67375 54.552062 
L 461.67375 138.792062 
L 327.27375 138.792062 
L 327.27375 54.552062 
" clip-path="url(#p8553897598)" style="fill: #ffffff; stroke: #d3d3d3; stroke-width: 0.5"/>
    <path d="M 58.47375 138.792062 
L 192.87375 138.792062 
L 192.87375 223.032062 
L 58.47375 223.032062 
L 58.47375 138.792062 
" clip-path="url(#p8553897598)" style="stroke: #d3d3d3; stroke-width: 0.5"/>
    <path d="M 192.87375 138.792062 
L 327.27375 138.792062 
L 327.27375 223.032062 
L 192.87375 223.032062 
L 192.87375 138.792062 
" clip-path="url(#p8553897598)" style="fill: #ffffff; stroke: #d3d3d3; stroke-width: 0.5"/>
    <path d="M 327.27375 138.792062 
L 461.67375 138.792062 
L 461.67375 223.032062 
L 327.27375 223.032062 
L 327.27375 138.792062 
" clip-path="url(#p8553897598)" style="fill: #ffffff; stroke: #d3d3d3; stroke-width: 0.5"/>
    <path d="M 58.47375 223.032062 
L 192.87375 223.032062 
L 192.87375 307.272063 
L 58.47375 307.272063 
L 58.47375 223.032062 
" clip-path="url(#p8553897598)" style="fill: #f4f4f4; stroke: #d3d3d3; stroke-width: 0.5"/>
    <path d="M 192.87375 223.032062 
L 327.27375 223.032062 
L 327.27375 307.272063 
L 192.87375 307.272063 
L 192.87375 223.032062 
" clip-path="url(#p8553897598)" style="fill: #393939; stroke: #d3d3d3; stroke-width: 0.5"/>
    <path d="M 327.27375 223.032062 
L 461.67375 223.032062 
L 461.67375 307.272063 
L 327.27375 307.272063 
L 327.27375 223.032062 
" clip-path="url(#p8553897598)" style="fill: #ffffff; stroke: #d3d3d3; stroke-width: 0.5"/>
    <path d="M 58.47375 307.272063 
L 192.87375 307.272063 
L 192.87375 391.512063 
L 58.47375 391.512063 
L 58.47375 307.272063 
" clip-path="url(#p8553897598)" style="fill: #1b1b1b; stroke: #d3d3d3; stroke-width: 0.5"/>
    <path d="M 192.87375 307.272063 
L 327.27375 307.272063 
L 327.27375 391.512063 
L 192.87375 391.512063 
L 192.87375 307.272063 
" clip-path="url(#p8553897598)" style="fill: #ffffff; stroke: #d3d3d3; stroke-width: 0.5"/>
    <path d="M 327.27375 307.272063 
L 461.67375 307.272063 
L 461.67375 391.512063 
L 327.27375 391.512063 
L 327.27375 307.272063 
" clip-path="url(#p8553897598)" style="fill: #ffffff; stroke: #d3d3d3; stroke-width: 0.5"/>
   </g>
   <g id="text_10">
    <!-- 5 -->
    <g style="fill: #ffffff" transform="translate(121.85625 99.983312) scale(0.12 -0.12)">
     <defs>
      <path id="DejaVuSerif-35" d="M 3219 4666 
L 3219 4153 
L 1081 4153 
L 1081 2816 
Q 1244 2928 1461 2984 
Q 1678 3041 1947 3041 
Q 2703 3041 3140 2622 
Q 3578 2203 3578 1478 
Q 3578 738 3136 323 
Q 2694 -91 1894 -91 
Q 1572 -91 1234 -12 
Q 897 66 544 225 
L 544 1131 
L 897 1131 
Q 925 688 1179 453 
Q 1434 219 1894 219 
Q 2388 219 2653 544 
Q 2919 869 2919 1478 
Q 2919 2084 2655 2407 
Q 2391 2731 1894 2731 
Q 1613 2731 1398 2631 
Q 1184 2531 1019 2322 
L 750 2322 
L 750 4666 
L 3219 4666 
z
" transform="scale(0.015625)"/>
     </defs>
     <use xlink:href="#DejaVuSerif-35"/>
    </g>
   </g>
   <g id="text_11">
    <!-- 10 -->
    <g style="fill: #ffffff" transform="translate(252.43875 99.983312) scale(0.12 -0.12)">
     <defs>
      <path id="DejaVuSerif-31" d="M 909 0 
L 909 331 
L 1722 331 
L 1722 4213 
L 781 3603 
L 781 4013 
L 1919 4750 
L 2350 4750 
L 2350 331 
L 3163 331 
L 3163 0 
L 909 0 
z
" transform="scale(0.015625)"/>
      <path id="DejaVuSerif-30" d="M 2034 219 
Q 2513 219 2750 744 
Q 2988 1269 2988 2328 
Q 2988 3391 2750 3916 
Q 2513 4441 2034 4441 
Q 1556 4441 1318 3916 
Q 1081 3391 1081 2328 
Q 1081 1269 1318 744 
Q 1556 219 2034 219 
z
M 2034 -91 
Q 1275 -91 848 546 
Q 422 1184 422 2328 
Q 422 3475 848 4112 
Q 1275 4750 2034 4750 
Q 2797 4750 3222 4112 
Q 3647 3475 3647 2328 
Q 3647 1184 3222 546 
Q 2797 -91 2034 -91 
z
" transform="scale(0.015625)"/>
     </defs>
     <use xlink:href="#DejaVuSerif-31"/>
     <use xlink:href="#DejaVuSerif-30" transform="translate(63.623047 0)"/>
    </g>
   </g>
   <g id="text_12">
    <!-- 0 -->
    <g style="fill: #262626" transform="translate(390.65625 99.983312) scale(0.12 -0.12)">
     <use xlink:href="#DejaVuSerif-30"/>
    </g>
   </g>
   <g id="text_13">
    <!-- 11 -->
    <g style="fill: #ffffff" transform="translate(118.03875 184.223312) scale(0.12 -0.12)">
     <use xlink:href="#DejaVuSerif-31"/>
     <use xlink:href="#DejaVuSerif-31" transform="translate(63.623047 0)"/>
    </g>
   </g>
   <g id="text_14">
    <!-- 0 -->
    <g style="fill: #262626" transform="translate(256.25625 184.223312) scale(0.12 -0.12)">
     <use xlink:href="#DejaVuSerif-30"/>
    </g>
   </g>
   <g id="text_15">
    <!-- 0 -->
    <g style="fill: #262626" transform="translate(390.65625 184.223312) scale(0.12 -0.12)">
     <use xlink:href="#DejaVuSerif-30"/>
    </g>
   </g>
   <g id="text_16">
    <!-- 1 -->
    <g style="fill: #262626" transform="translate(121.85625 268.463313) scale(0.12 -0.12)">
     <use xlink:href="#DejaVuSerif-31"/>
    </g>
   </g>
   <g id="text_17">
    <!-- 9 -->
    <g style="fill: #ffffff" transform="translate(256.25625 268.463313) scale(0.12 -0.12)">
     <defs>
      <path id="DejaVuSerif-39" d="M 2994 2091 
Q 2784 1856 2512 1740 
Q 2241 1625 1900 1625 
Q 1206 1625 804 2044 
Q 403 2463 403 3188 
Q 403 3897 839 4323 
Q 1275 4750 2003 4750 
Q 2794 4750 3217 4161 
Q 3641 3572 3641 2478 
Q 3641 1253 3137 581 
Q 2634 -91 1722 -91 
Q 1475 -91 1203 -44 
Q 931 3 647 97 
L 647 872 
L 997 872 
Q 1038 556 1241 387 
Q 1444 219 1784 219 
Q 2391 219 2687 676 
Q 2984 1134 2994 2091 
z
M 1978 4441 
Q 1534 4441 1298 4117 
Q 1063 3794 1063 3188 
Q 1063 2581 1298 2256 
Q 1534 1931 1978 1931 
Q 2422 1931 2658 2245 
Q 2894 2559 2894 3150 
Q 2894 3772 2656 4106 
Q 2419 4441 1978 4441 
z
" transform="scale(0.015625)"/>
     </defs>
     <use xlink:href="#DejaVuSerif-39"/>
    </g>
   </g>
   <g id="text_18">
    <!-- 0 -->
    <g style="fill: #262626" transform="translate(390.65625 268.463313) scale(0.12 -0.12)">
     <use xlink:href="#DejaVuSerif-30"/>
    </g>
   </g>
   <g id="text_19">
    <!-- 10 -->
    <g style="fill: #ffffff" transform="translate(118.03875 352.703313) scale(0.12 -0.12)">
     <use xlink:href="#DejaVuSerif-31"/>
     <use xlink:href="#DejaVuSerif-30" transform="translate(63.623047 0)"/>
    </g>
   </g>
   <g id="text_20">
    <!-- 0 -->
    <g style="fill: #262626" transform="translate(256.25625 352.703313) scale(0.12 -0.12)">
     <use xlink:href="#DejaVuSerif-30"/>
    </g>
   </g>
   <g id="text_21">
    <!-- 0 -->
    <g style="fill: #262626" transform="translate(390.65625 352.703313) scale(0.12 -0.12)">
     <use xlink:href="#DejaVuSerif-30"/>
    </g>
   </g>
   <g id="text_22">
    <!-- Rozkład najlepszych wyników dla frameworków wg typu instancji -->
    <g style="fill: #262626" transform="translate(27.46375 18.397812) scale(0.14 -0.14)">
     <defs>
      <path id="DejaVuSerif-52" d="M 3066 2316 
Q 3284 2256 3442 2114 
Q 3600 1972 3725 1716 
L 4403 331 
L 4972 331 
L 4972 0 
L 3872 0 
L 3144 1484 
Q 2934 1916 2759 2042 
Q 2584 2169 2278 2169 
L 1581 2169 
L 1581 331 
L 2241 331 
L 2241 0 
L 353 0 
L 353 331 
L 947 331 
L 947 4331 
L 353 4331 
L 353 4666 
L 2719 4666 
Q 3400 4666 3770 4341 
Q 4141 4016 4141 3419 
Q 4141 2938 3870 2661 
Q 3600 2384 3066 2316 
z
M 1581 2503 
L 2503 2503 
Q 2975 2503 3200 2726 
Q 3425 2950 3425 3419 
Q 3425 3888 3200 4109 
Q 2975 4331 2503 4331 
L 1581 4331 
L 1581 2503 
z
" transform="scale(0.015625)"/>
      <path id="DejaVuSerif-142" d="M 1338 331 
L 1888 331 
L 1888 0 
L 219 0 
L 219 331 
L 763 331 
L 763 2125 
L 331 1825 
L 141 2094 
L 763 2534 
L 763 4531 
L 219 4531 
L 219 4863 
L 1338 4863 
L 1338 2938 
L 1797 3244 
L 1984 2975 
L 1338 2534 
L 1338 331 
z
" transform="scale(0.015625)"/>
      <path id="DejaVuSerif-64" d="M 3359 331 
L 3909 331 
L 3909 0 
L 2784 0 
L 2784 519 
Q 2616 206 2355 57 
Q 2094 -91 1709 -91 
Q 1097 -91 708 395 
Q 319 881 319 1663 
Q 319 2444 706 2928 
Q 1094 3413 1709 3413 
Q 2094 3413 2355 3264 
Q 2616 3116 2784 2803 
L 2784 4531 
L 2241 4531 
L 2241 4863 
L 3359 4863 
L 3359 331 
z
M 2784 1497 
L 2784 1825 
Q 2784 2422 2554 2737 
Q 2325 3053 1888 3053 
Q 1444 3053 1217 2703 
Q 991 2353 991 1663 
Q 991 975 1217 622 
Q 1444 269 1888 269 
Q 2325 269 2554 583 
Q 2784 897 2784 1497 
z
" transform="scale(0.015625)"/>
      <path id="DejaVuSerif-66" d="M 2753 4078 
L 2450 4078 
Q 2447 4313 2317 4434 
Q 2188 4556 1941 4556 
Q 1619 4556 1487 4379 
Q 1356 4203 1356 3750 
L 1356 3322 
L 2284 3322 
L 2284 2988 
L 1356 2988 
L 1356 331 
L 2094 331 
L 2094 0 
L 231 0 
L 231 331 
L 781 331 
L 781 2988 
L 231 2988 
L 231 3322 
L 781 3322 
L 781 3738 
Q 781 4294 1070 4578 
Q 1359 4863 1919 4863 
Q 2128 4863 2337 4825 
Q 2547 4788 2753 4709 
L 2753 4078 
z
" transform="scale(0.015625)"/>
      <path id="DejaVuSerif-67" d="M 3359 2988 
L 3359 72 
Q 3359 -644 2965 -1033 
Q 2572 -1422 1844 -1422 
Q 1516 -1422 1216 -1362 
Q 916 -1303 641 -1184 
L 641 -488 
L 941 -488 
Q 997 -813 1206 -963 
Q 1416 -1113 1806 -1113 
Q 2313 -1113 2548 -827 
Q 2784 -541 2784 72 
L 2784 519 
Q 2616 206 2355 57 
Q 2094 -91 1709 -91 
Q 1097 -91 708 395 
Q 319 881 319 1663 
Q 319 2444 706 2928 
Q 1094 3413 1709 3413 
Q 2094 3413 2355 3264 
Q 2616 3116 2784 2803 
L 2784 3322 
L 3909 3322 
L 3909 2988 
L 3359 2988 
z
M 2784 1825 
Q 2784 2422 2554 2737 
Q 2325 3053 1888 3053 
Q 1444 3053 1217 2703 
Q 991 2353 991 1663 
Q 991 975 1217 622 
Q 1444 269 1888 269 
Q 2325 269 2554 583 
Q 2784 897 2784 1497 
L 2784 1825 
z
" transform="scale(0.015625)"/>
     </defs>
     <use xlink:href="#DejaVuSerif-52"/>
     <use xlink:href="#DejaVuSerif-6f" transform="translate(75.292969 0)"/>
     <use xlink:href="#DejaVuSerif-7a" transform="translate(135.498047 0)"/>
     <use xlink:href="#DejaVuSerif-6b" transform="translate(188.183594 0)"/>
     <use xlink:href="#DejaVuSerif-142" transform="translate(248.779297 0)"/>
     <use xlink:href="#DejaVuSerif-61" transform="translate(281.201172 0)"/>
     <use xlink:href="#DejaVuSerif-64" transform="translate(340.820312 0)"/>
     <use xlink:href="#DejaVuSerif-20" transform="translate(404.833984 0)"/>
     <use xlink:href="#DejaVuSerif-6e" transform="translate(436.621094 0)"/>
     <use xlink:href="#DejaVuSerif-61" transform="translate(501.025391 0)"/>
     <use xlink:href="#DejaVuSerif-6a" transform="translate(560.644531 0)"/>
     <use xlink:href="#DejaVuSerif-6c" transform="translate(591.650391 0)"/>
     <use xlink:href="#DejaVuSerif-65" transform="translate(623.632812 0)"/>
     <use xlink:href="#DejaVuSerif-70" transform="translate(682.8125 0)"/>
     <use xlink:href="#DejaVuSerif-73" transform="translate(746.826172 0)"/>
     <use xlink:href="#DejaVuSerif-7a" transform="translate(798.144531 0)"/>
     <use xlink:href="#DejaVuSerif-79" transform="translate(850.830078 0)"/>
     <use xlink:href="#DejaVuSerif-63" transform="translate(907.324219 0)"/>
     <use xlink:href="#DejaVuSerif-68" transform="translate(963.330078 0)"/>
     <use xlink:href="#DejaVuSerif-20" transform="translate(1027.734375 0)"/>
     <use xlink:href="#DejaVuSerif-77" transform="translate(1059.521484 0)"/>
     <use xlink:href="#DejaVuSerif-79" transform="translate(1145.117188 0)"/>
     <use xlink:href="#DejaVuSerif-6e" transform="translate(1201.611328 0)"/>
     <use xlink:href="#DejaVuSerif-69" transform="translate(1266.015625 0)"/>
     <use xlink:href="#DejaVuSerif-6b" transform="translate(1297.998047 0)"/>
     <use xlink:href="#DejaVuSerif-f3" transform="translate(1358.59375 0)"/>
     <use xlink:href="#DejaVuSerif-77" transform="translate(1418.798828 0)"/>
     <use xlink:href="#DejaVuSerif-20" transform="translate(1504.394531 0)"/>
     <use xlink:href="#DejaVuSerif-64" transform="translate(1536.181641 0)"/>
     <use xlink:href="#DejaVuSerif-6c" transform="translate(1600.195312 0)"/>
     <use xlink:href="#DejaVuSerif-61" transform="translate(1632.177734 0)"/>
     <use xlink:href="#DejaVuSerif-20" transform="translate(1691.796875 0)"/>
     <use xlink:href="#DejaVuSerif-66" transform="translate(1723.583984 0)"/>
     <use xlink:href="#DejaVuSerif-72" transform="translate(1760.595703 0)"/>
     <use xlink:href="#DejaVuSerif-61" transform="translate(1808.398438 0)"/>
     <use xlink:href="#DejaVuSerif-6d" transform="translate(1868.017578 0)"/>
     <use xlink:href="#DejaVuSerif-65" transform="translate(1962.841797 0)"/>
     <use xlink:href="#DejaVuSerif-77" transform="translate(2022.021484 0)"/>
     <use xlink:href="#DejaVuSerif-6f" transform="translate(2107.617188 0)"/>
     <use xlink:href="#DejaVuSerif-72" transform="translate(2167.822266 0)"/>
     <use xlink:href="#DejaVuSerif-6b" transform="translate(2215.625 0)"/>
     <use xlink:href="#DejaVuSerif-f3" transform="translate(2276.220703 0)"/>
     <use xlink:href="#DejaVuSerif-77" transform="translate(2336.425781 0)"/>
     <use xlink:href="#DejaVuSerif-20" transform="translate(2422.021484 0)"/>
     <use xlink:href="#DejaVuSerif-77" transform="translate(2453.808594 0)"/>
     <use xlink:href="#DejaVuSerif-67" transform="translate(2539.404297 0)"/>
     <use xlink:href="#DejaVuSerif-20" transform="translate(2603.417969 0)"/>
     <use xlink:href="#DejaVuSerif-74" transform="translate(2635.205078 0)"/>
     <use xlink:href="#DejaVuSerif-79" transform="translate(2675.390625 0)"/>
     <use xlink:href="#DejaVuSerif-70" transform="translate(2731.884766 0)"/>
     <use xlink:href="#DejaVuSerif-75" transform="translate(2795.898438 0)"/>
     <use xlink:href="#DejaVuSerif-20" transform="translate(2860.302734 0)"/>
     <use xlink:href="#DejaVuSerif-69" transform="translate(2892.089844 0)"/>
     <use xlink:href="#DejaVuSerif-6e" transform="translate(2924.072266 0)"/>
     <use xlink:href="#DejaVuSerif-73" transform="translate(2988.476562 0)"/>
     <use xlink:href="#DejaVuSerif-74" transform="translate(3039.794922 0)"/>
     <use xlink:href="#DejaVuSerif-61" transform="translate(3079.980469 0)"/>
     <use xlink:href="#DejaVuSerif-6e" transform="translate(3139.599609 0)"/>
     <use xlink:href="#DejaVuSerif-63" transform="translate(3204.003906 0)"/>
     <use xlink:href="#DejaVuSerif-6a" transform="translate(3260.009766 0)"/>
     <use xlink:href="#DejaVuSerif-69" transform="translate(3291.015625 0)"/>
    </g>
    <!-- (kryterium: śr. czas transpilacji) -->
    <g style="fill: #262626" transform="translate(146.689062 34.552062) scale(0.14 -0.14)">
     <defs>
      <path id="DejaVuSerif-3a" d="M 666 325 
Q 666 500 786 622 
Q 906 744 1081 744 
Q 1256 744 1376 622 
Q 1497 500 1497 325 
Q 1497 150 1378 29 
Q 1259 -91 1081 -91 
Q 903 -91 784 29 
Q 666 150 666 325 
z
M 666 2363 
Q 666 2538 786 2658 
Q 906 2778 1081 2778 
Q 1259 2778 1378 2659 
Q 1497 2541 1497 2363 
Q 1497 2184 1378 2065 
Q 1259 1947 1081 1947 
Q 906 1947 786 2067 
Q 666 2188 666 2363 
z
" transform="scale(0.015625)"/>
     </defs>
     <use xlink:href="#DejaVuSerif-28"/>
     <use xlink:href="#DejaVuSerif-6b" transform="translate(39.013672 0)"/>
     <use xlink:href="#DejaVuSerif-72" transform="translate(99.609375 0)"/>
     <use xlink:href="#DejaVuSerif-79" transform="translate(147.412109 0)"/>
     <use xlink:href="#DejaVuSerif-74" transform="translate(203.90625 0)"/>
     <use xlink:href="#DejaVuSerif-65" transform="translate(244.091797 0)"/>
     <use xlink:href="#DejaVuSerif-72" transform="translate(303.271484 0)"/>
     <use xlink:href="#DejaVuSerif-69" transform="translate(351.074219 0)"/>
     <use xlink:href="#DejaVuSerif-75" transform="translate(383.056641 0)"/>
     <use xlink:href="#DejaVuSerif-6d" transform="translate(447.460938 0)"/>
     <use xlink:href="#DejaVuSerif-3a" transform="translate(542.285156 0)"/>
     <use xlink:href="#DejaVuSerif-20" transform="translate(575.976562 0)"/>
     <use xlink:href="#DejaVuSerif-15b" transform="translate(607.763672 0)"/>
     <use xlink:href="#DejaVuSerif-72" transform="translate(659.082031 0)"/>
     <use xlink:href="#DejaVuSerif-2e" transform="translate(695.884766 0)"/>
     <use xlink:href="#DejaVuSerif-20" transform="translate(727.671875 0)"/>
     <use xlink:href="#DejaVuSerif-63" transform="translate(759.458984 0)"/>
     <use xlink:href="#DejaVuSerif-7a" transform="translate(815.464844 0)"/>
     <use xlink:href="#DejaVuSerif-61" transform="translate(868.150391 0)"/>
     <use xlink:href="#DejaVuSerif-73" transform="translate(927.769531 0)"/>
     <use xlink:href="#DejaVuSerif-20" transform="translate(979.087891 0)"/>
     <use xlink:href="#DejaVuSerif-74" transform="translate(1010.875 0)"/>
     <use xlink:href="#DejaVuSerif-72" transform="translate(1051.060547 0)"/>
     <use xlink:href="#DejaVuSerif-61" transform="translate(1098.863281 0)"/>
     <use xlink:href="#DejaVuSerif-6e" transform="translate(1158.482422 0)"/>
     <use xlink:href="#DejaVuSerif-73" transform="translate(1222.886719 0)"/>
     <use xlink:href="#DejaVuSerif-70" transform="translate(1274.205078 0)"/>
     <use xlink:href="#DejaVuSerif-69" transform="translate(1338.21875 0)"/>
     <use xlink:href="#DejaVuSerif-6c" transform="translate(1370.201172 0)"/>
     <use xlink:href="#DejaVuSerif-61" transform="translate(1402.183594 0)"/>
     <use xlink:href="#DejaVuSerif-63" transform="translate(1461.802734 0)"/>
     <use xlink:href="#DejaVuSerif-6a" transform="translate(1517.808594 0)"/>
     <use xlink:href="#DejaVuSerif-69" transform="translate(1548.814453 0)"/>
     <use xlink:href="#DejaVuSerif-29" transform="translate(1580.796875 0)"/>
    </g>
   </g>
  </g>
 </g>
 <defs>
  <clipPath id="p8553897598">
   <rect x="58.47375" y="54.552062" width="403.2" height="336.96"/>
  </clipPath>
 </defs>
</svg>
